Hamlet-Cicero12-1.1.ufo
<glyph name="ampersand" format="2">
	<advance width="698"/>
	<unicode hex="0026"/>
	<outline>
		<contour>
			<point x="182" y="-10" type="curve"/>
			<point x="182" y="-10" type="line"/>
			<point x="230" y="-10"/>
			<point x="294" y="26"/>
			<point x="361" y="79" type="curve"/>
			<point x="436" y="26"/>
			<point x="495" y="-10"/>
			<point x="529" y="-10" type="curve"/>
			<point x="592" y="-10"/>
			<point x="658" y="68"/>
			<point x="678" y="130" type="curve"/>
			<point x="656" y="140" type="line"/>
			<point x="637" y="107"/>
			<point x="607" y="76"/>
			<point x="582" y="76" type="curve"/>
			<point x="545" y="76"/>
			<point x="489" y="103"/>
			<point x="429" y="139" type="curve"/>
			<point x="550" y="257"/>
			<point x="657" y="414"/>
			<point x="649" y="499" type="curve"/>
			<point x="491" y="470" type="line"/>
			<point x="497" y="452" type="line"/>
			<point x="523" y="446"/>
			<point x="538" y="418"/>
			<point x="538" y="390" type="curve"/>
			<point x="538" y="320"/>
			<point x="474" y="227"/>
			<point x="398" y="159" type="curve"/>
			<point x="346" y="191"/>
			<point x="295" y="228"/>
			<point x="251" y="259" type="curve"/>
			<point x="284" y="299"/>
			<point x="323" y="351"/>
			<point x="323" y="396" type="curve"/>
			<point x="323" y="448"/>
			<point x="290" y="491"/>
			<point x="225" y="502" type="curve"/>
			<point x="150" y="502"/>
			<point x="52" y="459"/>
			<point x="52" y="372" type="curve"/>
			<point x="52" y="341"/>
			<point x="72" y="309"/>
			<point x="104" y="277" type="curve"/>
			<point x="64" y="236"/>
			<point x="20" y="178"/>
			<point x="20" y="133" type="curve"/>
			<point x="20" y="54"/>
			<point x="71" y="-10"/>
		</contour>
		<contour>
			<point x="222" y="65" type="curve"/>
			<point x="222" y="65" type="line"/>
			<point x="172" y="65"/>
			<point x="98" y="92"/>
			<point x="98" y="182" type="curve"/>
			<point x="98" y="207"/>
			<point x="112" y="235"/>
			<point x="127" y="255" type="curve"/>
			<point x="145" y="240"/>
			<point x="165" y="224"/>
			<point x="186" y="208" type="curve"/>
			<point x="236" y="171"/>
			<point x="283" y="135"/>
			<point x="326" y="104" type="curve"/>
			<point x="288" y="80"/>
			<point x="251" y="65"/>
		</contour>
		<contour>
			<point x="234" y="271" type="curve"/>
			<point x="234" y="271" type="line"/>
			<point x="230" y="274" type="line" smooth="yes"/>
			<point x="146" y="332"/>
			<point x="110" y="416"/>
			<point x="165" y="450" type="curve"/>
			<point x="237" y="441"/>
			<point x="268" y="361"/>
		</contour>
	</outline>
</glyph>
<glyph name="quotesingle" format="2">
	<advance width="200"/>
	<unicode hex="0027"/>
	<outline>
		<contour>
			<point x="37" y="480" type="line"/>
			<point x="180" y="642" type="line"/>
			<point x="109" y="713" type="line"/>
			<point x="37" y="642" type="line"/>
			<point x="83" y="599" type="line"/>
			<point x="20" y="490" type="line"/>
		</contour>
	</outline>
</glyph>
<glyph name="parenleft" format="2">
	<advance width="221"/>
	<unicode hex="0028"/>
	<outline>
		<contour>
			<point x="173" y="-167" type="curve"/>
			<point x="173" y="-167" type="line"/>
			<point x="201" y="-150" type="line"/>
			<point x="149" y="-59"/>
			<point x="105" y="106"/>
			<point x="105" y="266" type="curve"/>
			<point x="105" y="426"/>
			<point x="118" y="534"/>
			<point x="180" y="656" type="curve"/>
			<point x="152" y="675" type="line"/>
			<point x="73" y="547"/>
			<point x="20" y="452"/>
			<point x="20" y="269" type="curve"/>
			<point x="20" y="86"/>
			<point x="99" y="-74"/>
		</contour>
	</outline>
</glyph>
<glyph name="parenright" format="2">
	<advance width="221"/>
	<unicode hex="0029"/>
	<outline>
		<contour>
			<point x="20" y="-150" type="curve"/>
			<point x="48" y="-167" type="line"/>
			<point x="122" y="-74"/>
			<point x="201" y="86"/>
			<point x="201" y="269" type="curve"/>
			<point x="201" y="452"/>
			<point x="148" y="547"/>
			<point x="69" y="675" type="curve"/>
			<point x="41" y="656" type="line"/>
			<point x="103" y="534"/>
			<point x="116" y="426"/>
			<point x="116" y="266" type="curve"/>
			<point x="116" y="106"/>
			<point x="72" y="-59"/>
		</contour>
	</outline>
</glyph>
<glyph name="hyphen" format="2">
	<advance width="282"/>
	<unicode hex="002D"/>
	<outline>
		<contour>
			<point x="20" y="192" type="curve"/>
			<point x="20" y="187" type="line"/>
			<point x="68" y="193"/>
			<point x="135" y="193"/>
			<point x="219" y="187" type="curve"/>
			<point x="236" y="215"/>
			<point x="251" y="243"/>
			<point x="262" y="271" type="curve"/>
			<point x="262" y="277" type="line"/>
			<point x="204" y="266"/>
			<point x="137" y="259"/>
			<point x="61" y="258" type="curve"/>
			<point x="44" y="236"/>
			<point x="31" y="214"/>
		</contour>
	</outline>
</glyph>
<glyph name="period" format="2">
	<advance width="163"/>
	<unicode hex="002E"/>
	<outline>
		<contour>
			<point x="81" y="-10" type="curve"/>
			<point x="81" y="-10" type="line"/>
			<point x="82" y="-10" type="line"/>
			<point x="105" y="10"/>
			<point x="126" y="31"/>
			<point x="143" y="51" type="curve"/>
			<point x="143" y="52" type="line"/>
			<point x="124" y="74"/>
			<point x="103" y="95"/>
			<point x="82" y="113" type="curve"/>
			<point x="81" y="113" type="line"/>
			<point x="62" y="93"/>
			<point x="41" y="72"/>
			<point x="20" y="52" type="curve"/>
			<point x="20" y="51" type="line"/>
			<point x="39" y="34"/>
			<point x="60" y="13"/>
		</contour>
	</outline>
</glyph>
<glyph name="colon" format="2">
	<advance width="163"/>
	<unicode hex="003A"/>
	<outline>
		<contour>
			<point x="81" y="129" type="curve"/>
			<point x="81" y="129" type="line"/>
			<point x="82" y="129" type="line"/>
			<point x="105" y="149"/>
			<point x="126" y="170"/>
			<point x="143" y="190" type="curve"/>
			<point x="143" y="191" type="line"/>
			<point x="124" y="213"/>
			<point x="103" y="234"/>
			<point x="82" y="252" type="curve"/>
			<point x="81" y="252" type="line"/>
			<point x="62" y="232"/>
			<point x="41" y="211"/>
			<point x="20" y="191" type="curve"/>
			<point x="20" y="190" type="line"/>
			<point x="39" y="173"/>
			<point x="60" y="152"/>
		</contour>
		<contour>
			<point x="81" y="-24" type="curve"/>
			<point x="81" y="-24" type="line"/>
			<point x="82" y="-24" type="line"/>
			<point x="105" y="-4"/>
			<point x="126" y="17"/>
			<point x="143" y="37" type="curve"/>
			<point x="143" y="38" type="line"/>
			<point x="124" y="60"/>
			<point x="103" y="81"/>
			<point x="82" y="99" type="curve"/>
			<point x="81" y="99" type="line"/>
			<point x="62" y="79"/>
			<point x="41" y="58"/>
			<point x="20" y="38" type="curve"/>
			<point x="20" y="37" type="line"/>
			<point x="39" y="20"/>
			<point x="60" y="-1"/>
		</contour>
	</outline>
</glyph>
<glyph name="semicolon" format="2">
	<advance width="217"/>
	<unicode hex="003B"/>
	<outline>
		<contour>
			<point x="20" y="-125" type="line"/>
			<point x="35" y="-143" type="line"/>
			<point x="197" y="19" type="line"/>
			<point x="197" y="22" type="line"/>
			<point x="114" y="106" type="line"/>
			<point x="112" y="106" type="line"/>
			<point x="43" y="36" type="line"/>
			<point x="43" y="34" type="line"/>
			<point x="98" y="-20" type="line"/>
		</contour>
		<contour>
			<point x="134" y="141" type="curve"/>
			<point x="134" y="141" type="line"/>
			<point x="135" y="141" type="line"/>
			<point x="158" y="161"/>
			<point x="179" y="182"/>
			<point x="196" y="202" type="curve"/>
			<point x="196" y="203" type="line"/>
			<point x="177" y="225"/>
			<point x="156" y="246"/>
			<point x="135" y="264" type="curve"/>
			<point x="134" y="264" type="line"/>
			<point x="115" y="244"/>
			<point x="94" y="223"/>
			<point x="73" y="203" type="curve"/>
			<point x="73" y="202" type="line"/>
			<point x="92" y="185"/>
			<point x="113" y="164"/>
		</contour>
	</outline>
</glyph>
<glyph name="question" format="2">
	<advance width="319"/>
	<unicode hex="003F"/>
	<outline>
		<contour>
			<point x="234" y="134" type="curve"/>
			<point x="299" y="220" type="line"/>
			<point x="299" y="227" type="line"/>
			<point x="250" y="227"/>
			<point x="203" y="250"/>
			<point x="203" y="281" type="curve" smooth="yes"/>
			<point x="203" y="348"/>
			<point x="284" y="477"/>
			<point x="284" y="563" type="curve" smooth="yes"/>
			<point x="284" y="658"/>
			<point x="203" y="711"/>
			<point x="143" y="710" type="curve"/>
			<point x="20" y="558" type="line"/>
			<point x="37" y="542" type="line"/>
			<point x="64" y="570"/>
			<point x="102" y="591"/>
			<point x="132" y="591" type="curve" smooth="yes"/>
			<point x="173" y="591"/>
			<point x="212" y="574"/>
			<point x="212" y="519" type="curve" smooth="yes"/>
			<point x="212" y="445"/>
			<point x="143" y="238"/>
			<point x="144" y="202" type="curve"/>
			<point x="162" y="174"/>
			<point x="202" y="146"/>
		</contour>
		<contour>
			<point x="198" y="-18" type="curve"/>
			<point x="199" y="-18" type="line"/>
			<point x="222" y="2"/>
			<point x="243" y="23"/>
			<point x="260" y="43" type="curve"/>
			<point x="260" y="44" type="line"/>
			<point x="241" y="66"/>
			<point x="220" y="87"/>
			<point x="199" y="105" type="curve"/>
			<point x="198" y="105" type="line"/>
			<point x="179" y="85"/>
			<point x="158" y="64"/>
			<point x="137" y="44" type="curve"/>
			<point x="137" y="43" type="line"/>
			<point x="156" y="26"/>
			<point x="177" y="5"/>
		</contour>
	</outline>
</glyph>
<glyph name="A" format="2">
	<advance width="646"/>
	<unicode hex="0041"/>
	<outline>
		<contour>
			<point x="5" y="0" type="line"/>
			<point x="153" y="0" type="line"/>
			<point x="153" y="10" type="line"/>
			<point x="123" y="48"/>
			<point x="112" y="66"/>
			<point x="124" y="102" type="curve" smooth="yes"/>
			<point x="171" y="239" type="line"/>
			<point x="423" y="239" type="line"/>
			<point x="441" y="195"/>
			<point x="459" y="150"/>
			<point x="479" y="102" type="curve" smooth="yes"/>
			<point x="498" y="56"/>
			<point x="485" y="50"/>
			<point x="449" y="10" type="curve"/>
			<point x="449" y="0" type="line"/>
			<point x="641" y="0" type="line"/>
			<point x="641" y="10" type="line"/>
			<point x="539" y="225"/>
			<point x="364" y="625"/>
			<point x="338" y="710" type="curve"/>
			<point x="315" y="710" type="line"/>
			<point x="5" y="10" type="line"/>
		</contour>
		<contour>
			<point x="197" y="309" type="line"/>
			<point x="291" y="542" type="line"/>
			<point x="331" y="452"/>
			<point x="363" y="382"/>
			<point x="393" y="309" type="curve"/>
		</contour>
	</outline>
</glyph>
<glyph name="B" format="2">
	<advance width="660"/>
	<unicode hex="0042"/>
	<outline>
		<contour>
			<point x="337" y="-10" type="curve" smooth="yes"/>
			<point x="467" y="-10"/>
			<point x="620" y="56"/>
			<point x="620" y="196" type="curve" smooth="yes"/>
			<point x="620" y="302"/>
			<point x="536" y="380"/>
			<point x="419" y="402" type="curve"/>
			<point x="485" y="424"/>
			<point x="555" y="479"/>
			<point x="555" y="561" type="curve" smooth="yes"/>
			<point x="555" y="661"/>
			<point x="450" y="710"/>
			<point x="350" y="710" type="curve" smooth="yes"/>
			<point x="244" y="710"/>
			<point x="178" y="675"/>
			<point x="20" y="653" type="curve"/>
			<point x="20" y="643" type="line"/>
			<point x="43" y="629"/>
			<point x="61" y="615"/>
			<point x="91" y="593" type="curve"/>
			<point x="95" y="398"/>
			<point x="95" y="246"/>
			<point x="93" y="156" type="curve" smooth="yes"/>
			<point x="91" y="65"/>
			<point x="77" y="48"/>
			<point x="59" y="36" type="curve"/>
			<point x="57" y="16" type="line"/>
			<point x="143" y="14"/>
			<point x="252" y="-10"/>
		</contour>
		<contour>
			<point x="335" y="30" type="curve" smooth="yes"/>
			<point x="250" y="30"/>
			<point x="201" y="75"/>
			<point x="201" y="150" type="curve" smooth="yes"/>
			<point x="201" y="355" type="line"/>
			<point x="241" y="371"/>
			<point x="286" y="378"/>
			<point x="336" y="378" type="curve" smooth="yes"/>
			<point x="416" y="378"/>
			<point x="500" y="316"/>
			<point x="500" y="216" type="curve" smooth="yes"/>
			<point x="500" y="106"/>
			<point x="445" y="30"/>
		</contour>
		<contour>
			<point x="201" y="422" type="curve"/>
			<point x="201" y="632" type="line"/>
			<point x="229" y="649"/>
			<point x="264" y="670"/>
			<point x="321" y="670" type="curve" smooth="yes"/>
			<point x="391" y="670"/>
			<point x="454" y="620"/>
			<point x="454" y="550" type="curve" smooth="yes"/>
			<point x="454" y="482"/>
			<point x="418" y="441"/>
			<point x="368" y="422" type="curve"/>
			<point x="318" y="414"/>
			<point x="236" y="414"/>
		</contour>
	</outline>
</glyph>
<glyph name="C" format="2">
	<advance width="571"/>
	<unicode hex="0043"/>
	<outline>
		<contour>
			<point x="348" y="-10" type="curve" smooth="yes"/>
			<point x="384" y="-10"/>
			<point x="477" y="62"/>
			<point x="550" y="131" type="curve"/>
			<point x="552" y="166" type="line"/>
			<point x="549" y="167" type="line"/>
			<point x="487" y="120"/>
			<point x="422" y="90"/>
			<point x="381" y="90" type="curve" smooth="yes"/>
			<point x="301" y="90"/>
			<point x="130" y="174"/>
			<point x="130" y="424" type="curve" smooth="yes"/>
			<point x="130" y="551"/>
			<point x="188" y="632"/>
			<point x="278" y="632" type="curve" smooth="yes"/>
			<point x="351" y="632"/>
			<point x="419" y="606"/>
			<point x="485" y="575" type="curve"/>
			<point x="556" y="673" type="line"/>
			<point x="513" y="694"/>
			<point x="443" y="709"/>
			<point x="367" y="709" type="curve" smooth="yes"/>
			<point x="179" y="709"/>
			<point x="40" y="537"/>
			<point x="40" y="354" type="curve" smooth="yes"/>
			<point x="40" y="174"/>
			<point x="148" y="-10"/>
		</contour>
	</outline>
</glyph>
<glyph name="D" format="2">
	<advance width="756"/>
	<unicode hex="0044"/>
	<outline>
		<contour>
			<point x="355" y="-10" type="curve"/>
			<point x="355" y="-10" type="line"/>
			<point x="565" y="-10"/>
			<point x="716" y="134"/>
			<point x="716" y="336" type="curve"/>
			<point x="716" y="539"/>
			<point x="571" y="710"/>
			<point x="325" y="710" type="curve"/>
			<point x="209" y="710"/>
			<point x="144" y="675"/>
			<point x="29" y="702" type="curve"/>
			<point x="20" y="690" type="line"/>
			<point x="63" y="646"/>
			<point x="86" y="626"/>
			<point x="88" y="532" type="curve"/>
			<point x="91" y="386"/>
			<point x="101" y="231"/>
			<point x="90" y="105" type="curve"/>
			<point x="87" y="63"/>
			<point x="78" y="46"/>
			<point x="63" y="30" type="curve"/>
			<point x="65" y="10" type="line"/>
			<point x="134" y="40"/>
			<point x="226" y="-10"/>
		</contour>
		<contour>
			<point x="335" y="30" type="curve"/>
			<point x="335" y="30" type="line"/>
			<point x="265" y="30"/>
			<point x="219" y="55"/>
			<point x="202" y="96" type="curve"/>
			<point x="189" y="210"/>
			<point x="197" y="470"/>
			<point x="202" y="634" type="curve"/>
			<point x="234" y="650"/>
			<point x="292" y="670"/>
			<point x="346" y="670" type="curve"/>
			<point x="489" y="670"/>
			<point x="596" y="548"/>
			<point x="596" y="356" type="curve"/>
			<point x="596" y="186"/>
			<point x="505" y="30"/>
		</contour>
	</outline>
</glyph>
<glyph name="E" format="2">
	<advance width="468"/>
	<unicode hex="0045"/>
	<outline>
		<contour>
			<point x="418" y="-51" type="curve"/>
			<point x="428" y="-51" type="line"/>
			<point x="425" y="123" type="line"/>
			<point x="415" y="123" type="line"/>
			<point x="382" y="79"/>
			<point x="367" y="65"/>
			<point x="327" y="65" type="curve" smooth="yes"/>
			<point x="185" y="65" type="line"/>
			<point x="185" y="110" type="line" smooth="yes"/>
			<point x="183" y="188"/>
			<point x="182" y="266"/>
			<point x="181" y="344" type="curve"/>
			<point x="337" y="344" type="line" smooth="yes"/>
			<point x="377" y="344"/>
			<point x="385" y="329"/>
			<point x="402" y="310" type="curve"/>
			<point x="412" y="310" type="line"/>
			<point x="411" y="359"/>
			<point x="415" y="399"/>
			<point x="418" y="448" type="curve"/>
			<point x="409" y="449" type="line"/>
			<point x="389" y="421"/>
			<point x="370" y="404"/>
			<point x="330" y="404" type="curve" smooth="yes"/>
			<point x="181" y="404" type="line"/>
			<point x="181" y="483"/>
			<point x="182" y="561"/>
			<point x="184" y="640" type="curve"/>
			<point x="365" y="640" type="line" smooth="yes"/>
			<point x="395" y="640"/>
			<point x="412" y="620"/>
			<point x="415" y="580" type="curve"/>
			<point x="425" y="580" type="line"/>
			<point x="425" y="700" type="line"/>
			<point x="40" y="700" type="line"/>
			<point x="40" y="690" type="line"/>
			<point x="65" y="652"/>
			<point x="73" y="642"/>
			<point x="75" y="610" type="curve" smooth="yes"/>
			<point x="85" y="456"/>
			<point x="81" y="243"/>
			<point x="75" y="100" type="curve" smooth="yes"/>
			<point x="73" y="50"/>
			<point x="69" y="43"/>
			<point x="44" y="10" type="curve"/>
			<point x="44" y="0" type="line"/>
			<point x="315" y="0" type="line" smooth="yes"/>
			<point x="375" y="0"/>
			<point x="400" y="-18"/>
		</contour>
	</outline>
</glyph>
<glyph name="F" format="2">
	<advance width="437"/>
	<unicode hex="0046"/>
	<outline>
		<contour>
			<point x="40" y="0" type="line"/>
			<point x="234" y="0" type="line"/>
			<point x="234" y="10" type="line"/>
			<point x="203" y="41"/>
			<point x="193" y="50"/>
			<point x="192" y="80" type="curve" smooth="yes"/>
			<point x="189" y="160"/>
			<point x="185" y="262"/>
			<point x="185" y="344" type="curve"/>
			<point x="303" y="344" type="line" smooth="yes"/>
			<point x="343" y="344"/>
			<point x="381" y="333"/>
			<point x="394" y="312" type="curve"/>
			<point x="402" y="312" type="line"/>
			<point x="406" y="438" type="line"/>
			<point x="398" y="438" type="line"/>
			<point x="380" y="420"/>
			<point x="354" y="405"/>
			<point x="334" y="404" type="curve" smooth="yes"/>
			<point x="284" y="402"/>
			<point x="235" y="402"/>
			<point x="185" y="404" type="curve"/>
			<point x="185" y="482"/>
			<point x="186" y="563"/>
			<point x="187" y="635" type="curve"/>
			<point x="218" y="640"/>
			<point x="248" y="641"/>
			<point x="279" y="640" type="curve" smooth="yes"/>
			<point x="322" y="639"/>
			<point x="377" y="625"/>
			<point x="406" y="579" type="curve"/>
			<point x="416" y="579" type="line"/>
			<point x="417" y="700" type="line"/>
			<point x="44" y="700" type="line"/>
			<point x="44" y="690" type="line"/>
			<point x="69" y="659"/>
			<point x="77" y="656"/>
			<point x="79" y="606" type="curve" smooth="yes"/>
			<point x="85" y="452"/>
			<point x="85" y="243"/>
			<point x="79" y="100" type="curve" smooth="yes"/>
			<point x="77" y="50"/>
			<point x="65" y="35"/>
			<point x="40" y="10" type="curve"/>
		</contour>
	</outline>
</glyph>
<glyph name="G" format="2">
	<advance width="724"/>
	<unicode hex="0047"/>
	<outline>
		<contour>
			<point x="434" y="-10" type="curve"/>
			<point x="434" y="-10" type="line"/>
			<point x="554" y="-10"/>
			<point x="634" y="52"/>
			<point x="666" y="88" type="curve"/>
			<point x="663" y="169"/>
			<point x="662" y="281"/>
			<point x="666" y="391" type="curve"/>
			<point x="664" y="394" type="line"/>
			<point x="609" y="387"/>
			<point x="513" y="384"/>
			<point x="449" y="391" type="curve"/>
			<point x="371" y="303" type="line"/>
			<point x="386" y="292" type="line"/>
			<point x="428" y="323"/>
			<point x="503" y="316"/>
			<point x="567" y="316" type="curve"/>
			<point x="573" y="235"/>
			<point x="573" y="153"/>
			<point x="567" y="72" type="curve"/>
			<point x="543" y="57"/>
			<point x="514" y="43"/>
			<point x="454" y="43" type="curve"/>
			<point x="284" y="43"/>
			<point x="155" y="202"/>
			<point x="155" y="373" type="curve"/>
			<point x="155" y="473"/>
			<point x="173" y="537"/>
			<point x="217" y="591" type="curve"/>
			<point x="325" y="641"/>
			<point x="493" y="647"/>
			<point x="631" y="544" type="curve"/>
			<point x="637" y="544" type="line"/>
			<point x="684" y="656" type="line"/>
			<point x="622" y="693"/>
			<point x="548" y="710"/>
			<point x="451" y="710" type="curve"/>
			<point x="231" y="710"/>
			<point x="40" y="553"/>
			<point x="40" y="333" type="curve"/>
			<point x="40" y="114"/>
			<point x="234" y="-10"/>
		</contour>
	</outline>
</glyph>
<glyph name="H" format="2">
	<advance width="717"/>
	<unicode hex="0048"/>
	<outline>
		<contour>
			<point x="53" y="10" type="curve"/>
			<point x="53" y="0" type="line"/>
			<point x="238" y="0" type="line"/>
			<point x="238" y="10" type="line"/>
			<point x="205" y="35"/>
			<point x="194" y="45"/>
			<point x="193" y="85" type="curve"/>
			<point x="191" y="146"/>
			<point x="191" y="239"/>
			<point x="190" y="303" type="curve"/>
			<point x="524" y="305" type="line"/>
			<point x="527" y="239"/>
			<point x="527" y="191"/>
			<point x="523" y="102" type="curve"/>
			<point x="522" y="82"/>
			<point x="515" y="43"/>
			<point x="503" y="10" type="curve"/>
			<point x="503" y="0" type="line"/>
			<point x="677" y="0" type="line"/>
			<point x="677" y="10" type="line"/>
			<point x="648" y="42"/>
			<point x="633" y="52"/>
			<point x="629" y="122" type="curve"/>
			<point x="623" y="248"/>
			<point x="624" y="361"/>
			<point x="632" y="527" type="curve"/>
			<point x="634" y="570"/>
			<point x="642" y="579"/>
			<point x="667" y="602" type="curve"/>
			<point x="667" y="612" type="line"/>
			<point x="468" y="612" type="line"/>
			<point x="468" y="602" type="line"/>
			<point x="508" y="570"/>
			<point x="521" y="547"/>
			<point x="522" y="507" type="curve"/>
			<point x="523" y="461"/>
			<point x="524" y="409"/>
			<point x="523" y="371" type="curve"/>
			<point x="190" y="373" type="line"/>
			<point x="190" y="454"/>
			<point x="190" y="547"/>
			<point x="191" y="588" type="curve"/>
			<point x="194" y="658"/>
			<point x="207" y="673"/>
			<point x="226" y="690" type="curve"/>
			<point x="226" y="700" type="line"/>
			<point x="40" y="700" type="line"/>
			<point x="40" y="690" type="line"/>
			<point x="62" y="678"/>
			<point x="79" y="653"/>
			<point x="81" y="596" type="curve"/>
			<point x="86" y="458"/>
			<point x="88" y="271"/>
			<point x="83" y="105" type="curve"/>
			<point x="81" y="55"/>
			<point x="78" y="33"/>
		</contour>
	</outline>
</glyph>
<glyph name="I" format="2">
	<advance width="300"/>
	<unicode hex="0049"/>
	<outline>
		<contour>
			<point x="44" y="0" type="line"/>
			<point x="270" y="0" type="line"/>
			<point x="270" y="10" type="line"/>
			<point x="227" y="42"/>
			<point x="196" y="65"/>
			<point x="195" y="105" type="curve" smooth="yes"/>
			<point x="191" y="264"/>
			<point x="191" y="449"/>
			<point x="195" y="598" type="curve" smooth="yes"/>
			<point x="196" y="638"/>
			<point x="235" y="665"/>
			<point x="264" y="690" type="curve"/>
			<point x="264" y="700" type="line"/>
			<point x="40" y="700" type="line"/>
			<point x="40" y="690" type="line"/>
			<point x="60" y="668"/>
			<point x="84" y="648"/>
			<point x="85" y="608" type="curve" smooth="yes"/>
			<point x="88" y="452"/>
			<point x="88" y="271"/>
			<point x="85" y="105" type="curve" smooth="yes"/>
			<point x="84" y="55"/>
			<point x="69" y="43"/>
			<point x="44" y="10" type="curve"/>
		</contour>
	</outline>
</glyph>
<glyph name="J" format="2">
	<advance width="417"/>
	<unicode hex="004A"/>
	<outline>
		<contour>
			<point x="131" y="-190" type="line"/>
			<point x="271" y="-151"/>
			<point x="338" y="-53"/>
			<point x="338" y="151" type="curve" smooth="yes"/>
			<point x="338" y="521" type="line" smooth="yes"/>
			<point x="338" y="614"/>
			<point x="357" y="672"/>
			<point x="377" y="706" type="curve"/>
			<point x="368" y="712" type="line"/>
			<point x="328" y="701"/>
			<point x="290" y="700"/>
			<point x="250" y="700" type="curve" smooth="yes"/>
			<point x="187" y="700"/>
			<point x="115" y="707"/>
			<point x="78" y="707" type="curve"/>
			<point x="41" y="690"/>
			<point x="26" y="661"/>
			<point x="5" y="624" type="curve"/>
			<point x="15" y="614" type="line"/>
			<point x="32" y="632"/>
			<point x="77" y="637"/>
			<point x="230" y="620" type="curve"/>
			<point x="237" y="440"/>
			<point x="233" y="245"/>
			<point x="228" y="65" type="curve" smooth="yes"/>
			<point x="225" y="-35"/>
			<point x="197" y="-121"/>
			<point x="126" y="-169" type="curve"/>
		</contour>
	</outline>
</glyph>
<glyph name="K" format="2">
	<advance width="649"/>
	<unicode hex="004B"/>
	<outline>
		<contour>
			<point x="46" y="10" type="curve"/>
			<point x="46" y="0" type="line"/>
			<point x="253" y="0" type="line"/>
			<point x="253" y="10" type="line"/>
			<point x="210" y="42"/>
			<point x="189" y="62"/>
			<point x="178" y="75" type="curve"/>
			<point x="176" y="163"/>
			<point x="175" y="260"/>
			<point x="175" y="354" type="curve"/>
			<point x="248" y="343"/>
			<point x="441" y="136"/>
			<point x="441" y="73" type="curve"/>
			<point x="441" y="44"/>
			<point x="426" y="32"/>
			<point x="404" y="10" type="curve"/>
			<point x="404" y="0" type="line"/>
			<point x="644" y="0" type="line"/>
			<point x="644" y="10" type="line"/>
			<point x="568" y="92"/>
			<point x="369" y="306"/>
			<point x="259" y="394" type="curve"/>
			<point x="368" y="470"/>
			<point x="505" y="593"/>
			<point x="566" y="690" type="curve"/>
			<point x="566" y="700" type="line"/>
			<point x="357" y="700" type="line"/>
			<point x="357" y="690" type="line"/>
			<point x="381" y="683"/>
			<point x="397" y="677"/>
			<point x="414" y="671" type="curve"/>
			<point x="414" y="604"/>
			<point x="247" y="399"/>
			<point x="175" y="388" type="curve"/>
			<point x="175" y="483"/>
			<point x="176" y="573"/>
			<point x="178" y="648" type="curve"/>
			<point x="192" y="662"/>
			<point x="210" y="673"/>
			<point x="233" y="690" type="curve"/>
			<point x="233" y="700" type="line"/>
			<point x="40" y="700" type="line"/>
			<point x="40" y="690" type="line"/>
			<point x="52" y="668"/>
			<point x="67" y="648"/>
			<point x="68" y="608" type="curve"/>
			<point x="71" y="452"/>
			<point x="71" y="271"/>
			<point x="68" y="105" type="curve"/>
			<point x="67" y="55"/>
			<point x="58" y="43"/>
		</contour>
	</outline>
</glyph>
<glyph name="L" format="2">
	<advance width="523"/>
	<unicode hex="004C"/>
	<outline>
		<contour>
			<point x="56" y="0" type="line"/>
			<point x="503" y="0" type="line"/>
			<point x="503" y="215" type="line"/>
			<point x="493" y="215" type="line"/>
			<point x="459" y="126"/>
			<point x="435" y="53"/>
			<point x="353" y="44" type="curve" smooth="yes"/>
			<point x="316" y="40"/>
			<point x="261" y="37"/>
			<point x="201" y="36" type="curve"/>
			<point x="186" y="182"/>
			<point x="195" y="438"/>
			<point x="195" y="632" type="curve"/>
			<point x="206" y="641"/>
			<point x="232" y="660"/>
			<point x="291" y="689" type="curve"/>
			<point x="291" y="699" type="line"/>
			<point x="40" y="700" type="line"/>
			<point x="40" y="690" type="line"/>
			<point x="71" y="663"/>
			<point x="82" y="620"/>
			<point x="85" y="560" type="curve" smooth="yes"/>
			<point x="93" y="395"/>
			<point x="94" y="230"/>
			<point x="86" y="85" type="curve" smooth="yes"/>
			<point x="84" y="50"/>
			<point x="74" y="34"/>
			<point x="56" y="9" type="curve"/>
		</contour>
	</outline>
</glyph>
<glyph name="M" format="2">
	<advance width="821"/>
	<unicode hex="004D"/>
	<outline>
		<contour>
			<point x="370" y="-7" type="curve"/>
			<point x="404" y="1" type="line"/>
			<point x="411" y="125"/>
			<point x="500" y="344"/>
			<point x="589" y="543" type="curve"/>
			<point x="668" y="95" type="line" smooth="yes"/>
			<point x="675" y="54"/>
			<point x="613" y="24"/>
			<point x="579" y="10" type="curve"/>
			<point x="579" y="0" type="line"/>
			<point x="816" y="0" type="line"/>
			<point x="739" y="300"/>
			<point x="697" y="488"/>
			<point x="653" y="723" type="curve"/>
			<point x="617" y="720" type="line"/>
			<point x="402" y="229" type="line"/>
			<point x="212" y="723" type="line"/>
			<point x="166" y="717" type="line"/>
			<point x="5" y="0" type="line"/>
			<point x="201" y="0" type="line"/>
			<point x="201" y="10" type="line"/>
			<point x="113" y="34"/>
			<point x="87" y="59"/>
			<point x="92" y="100" type="curve" smooth="yes"/>
			<point x="112" y="253"/>
			<point x="146" y="409"/>
			<point x="176" y="564" type="curve"/>
			<point x="244" y="401"/>
			<point x="348" y="123"/>
		</contour>
	</outline>
</glyph>
<glyph name="N" format="2">
	<advance width="736"/>
	<unicode hex="004E"/>
	<outline>
		<contour>
			<point x="45" y="0" type="line"/>
			<point x="239" y="0" type="line"/>
			<point x="239" y="10" type="line"/>
			<point x="196" y="43"/>
			<point x="175" y="60"/>
			<point x="175" y="110" type="curve" smooth="yes"/>
			<point x="175" y="504" type="line"/>
			<point x="300" y="427"/>
			<point x="443" y="329"/>
			<point x="563" y="231" type="curve"/>
			<point x="566" y="188"/>
			<point x="566" y="134"/>
			<point x="563" y="91" type="curve" smooth="yes"/>
			<point x="561" y="61"/>
			<point x="548" y="41"/>
			<point x="508" y="10" type="curve"/>
			<point x="508" y="0" type="line"/>
			<point x="696" y="0" type="line"/>
			<point x="696" y="10" type="line"/>
			<point x="683" y="46"/>
			<point x="663" y="109"/>
			<point x="663" y="180" type="curve" smooth="yes"/>
			<point x="662" y="322"/>
			<point x="663" y="475"/>
			<point x="663" y="617" type="curve" smooth="yes"/>
			<point x="663" y="651"/>
			<point x="671" y="662"/>
			<point x="690" y="690" type="curve"/>
			<point x="690" y="700" type="line"/>
			<point x="478" y="700" type="line"/>
			<point x="478" y="690" type="line"/>
			<point x="541" y="653"/>
			<point x="563" y="639"/>
			<point x="563" y="580" type="curve" smooth="yes"/>
			<point x="563" y="327" type="line"/>
			<point x="444" y="410"/>
			<point x="302" y="515"/>
			<point x="179" y="604" type="curve"/>
			<point x="177" y="653"/>
			<point x="179" y="667"/>
			<point x="215" y="690" type="curve"/>
			<point x="215" y="700" type="line"/>
			<point x="40" y="700" type="line"/>
			<point x="40" y="690" type="line"/>
			<point x="55" y="660"/>
			<point x="75" y="630"/>
			<point x="75" y="530" type="curve" smooth="yes"/>
			<point x="75" y="130" type="line" smooth="yes"/>
			<point x="75" y="70"/>
			<point x="59" y="37"/>
			<point x="45" y="10" type="curve"/>
		</contour>
	</outline>
</glyph>
<glyph name="O" format="2">
	<advance width="739"/>
	<unicode hex="004F"/>
	<outline>
		<contour>
			<point x="364" y="-10" type="curve"/>
			<point x="364" y="-10" type="line"/>
			<point x="554" y="-10"/>
			<point x="699" y="151"/>
			<point x="699" y="351" type="curve"/>
			<point x="699" y="551"/>
			<point x="559" y="710"/>
			<point x="369" y="710" type="curve"/>
			<point x="189" y="710"/>
			<point x="40" y="551"/>
			<point x="40" y="351" type="curve"/>
			<point x="40" y="151"/>
			<point x="174" y="-10"/>
		</contour>
		<contour>
			<point x="373" y="30" type="curve"/>
			<point x="373" y="30" type="line"/>
			<point x="230" y="27"/>
			<point x="157" y="205"/>
			<point x="157" y="357" type="curve"/>
			<point x="157" y="504"/>
			<point x="225" y="668"/>
			<point x="362" y="670" type="curve"/>
			<point x="505" y="672"/>
			<point x="577" y="497"/>
			<point x="577" y="345" type="curve"/>
			<point x="577" y="198"/>
			<point x="510" y="33"/>
		</contour>
	</outline>
</glyph>
<glyph name="P" format="2">
	<advance width="607"/>
	<unicode hex="0050"/>
	<outline>
		<contour>
			<point x="50" y="10" type="curve"/>
			<point x="50" y="0" type="line"/>
			<point x="261" y="0" type="line"/>
			<point x="261" y="10" type="line"/>
			<point x="196" y="45"/>
			<point x="186" y="55"/>
			<point x="186" y="90" type="curve"/>
			<point x="186" y="282"/>
			<point x="182" y="459"/>
			<point x="186" y="651" type="curve"/>
			<point x="206" y="657"/>
			<point x="233" y="660"/>
			<point x="252" y="660" type="curve"/>
			<point x="404" y="660"/>
			<point x="480" y="586"/>
			<point x="480" y="479" type="curve"/>
			<point x="480" y="360"/>
			<point x="399" y="273"/>
			<point x="250" y="309" type="curve"/>
			<point x="246" y="292" type="line"/>
			<point x="264" y="281"/>
			<point x="300" y="270"/>
			<point x="351" y="270" type="curve"/>
			<point x="438" y="270"/>
			<point x="587" y="322"/>
			<point x="587" y="475" type="curve"/>
			<point x="587" y="595"/>
			<point x="482" y="700"/>
			<point x="272" y="700" type="curve"/>
			<point x="232" y="700"/>
			<point x="131" y="700"/>
			<point x="40" y="705" type="curve"/>
			<point x="40" y="695" type="line"/>
			<point x="60" y="662"/>
			<point x="76" y="660"/>
			<point x="76" y="560" type="curve"/>
			<point x="76" y="86" type="line" smooth="yes"/>
			<point x="76" y="54"/>
			<point x="65" y="32"/>
		</contour>
	</outline>
</glyph>
<glyph name="Q" format="2">
	<advance width="714"/>
	<unicode hex="0051"/>
	<outline>
		<contour>
			<point x="753" y="-222" type="curve"/>
			<point x="753" y="-222" type="line"/>
			<point x="825" y="-193"/>
			<point x="914" y="-134"/>
			<point x="1034" y="-53" type="curve"/>
			<point x="1010" y="-38" type="line"/>
			<point x="895" y="-97"/>
			<point x="821" y="-111"/>
			<point x="793" y="-111" type="curve"/>
			<point x="764" y="-111"/>
			<point x="608" y="-69"/>
			<point x="444" y="4" type="curve"/>
			<point x="585" y="48"/>
			<point x="684" y="186"/>
			<point x="684" y="351" type="curve"/>
			<point x="684" y="551"/>
			<point x="544" y="710"/>
			<point x="354" y="710" type="curve"/>
			<point x="174" y="710"/>
			<point x="25" y="551"/>
			<point x="25" y="351" type="curve"/>
			<point x="25" y="161"/>
			<point x="146" y="6"/>
			<point x="321" y="-9" type="curve"/>
			<point x="417" y="-42"/>
			<point x="649" y="-183"/>
		</contour>
		<contour>
			<point x="358" y="30" type="curve"/>
			<point x="358" y="30" type="line"/>
			<point x="215" y="27"/>
			<point x="142" y="205"/>
			<point x="142" y="357" type="curve"/>
			<point x="142" y="504"/>
			<point x="210" y="668"/>
			<point x="347" y="670" type="curve"/>
			<point x="490" y="672"/>
			<point x="562" y="497"/>
			<point x="562" y="345" type="curve"/>
			<point x="562" y="198"/>
			<point x="495" y="33"/>
		</contour>
	</outline>
</glyph>
<glyph name="R" format="2">
	<advance width="670"/>
	<unicode hex="0052"/>
	<outline>
		<contour>
			<point x="64" y="10" type="curve"/>
			<point x="64" y="0" type="line"/>
			<point x="214" y="0" type="line"/>
			<point x="214" y="10" type="line"/>
			<point x="204" y="41"/>
			<point x="190" y="57"/>
			<point x="190" y="109" type="curve"/>
			<point x="190" y="327" type="line"/>
			<point x="211" y="324"/>
			<point x="252" y="318"/>
			<point x="280" y="313" type="curve"/>
			<point x="314" y="283"/>
			<point x="403" y="177"/>
			<point x="455" y="95" type="curve"/>
			<point x="478" y="59"/>
			<point x="479" y="27"/>
			<point x="460" y="10" type="curve"/>
			<point x="460" y="0" type="line"/>
			<point x="660" y="0" type="line"/>
			<point x="660" y="10" type="line"/>
			<point x="562" y="123"/>
			<point x="419" y="274"/>
			<point x="362" y="333" type="curve"/>
			<point x="449" y="353"/>
			<point x="548" y="413"/>
			<point x="548" y="523" type="curve"/>
			<point x="548" y="643"/>
			<point x="450" y="700"/>
			<point x="300" y="700" type="curve"/>
			<point x="40" y="700" type="line"/>
			<point x="40" y="690" type="line"/>
			<point x="73" y="656"/>
			<point x="90" y="626"/>
			<point x="90" y="580" type="curve"/>
			<point x="90" y="117" type="line" smooth="yes"/>
			<point x="90" y="68"/>
			<point x="79" y="39"/>
		</contour>
		<contour>
			<point x="190" y="367" type="curve"/>
			<point x="190" y="367" type="line"/>
			<point x="190" y="660" type="line"/>
			<point x="207" y="662"/>
			<point x="224" y="662"/>
			<point x="241" y="662" type="curve"/>
			<point x="371" y="662"/>
			<point x="438" y="603"/>
			<point x="438" y="513" type="curve"/>
			<point x="438" y="400"/>
			<point x="321" y="352"/>
		</contour>
	</outline>
</glyph>
<glyph name="S" format="2">
	<advance width="510"/>
	<unicode hex="0053"/>
	<outline>
		<contour>
			<point x="279" y="-10" type="curve" smooth="yes"/>
			<point x="390" y="-10"/>
			<point x="480" y="76"/>
			<point x="480" y="201" type="curve" smooth="yes"/>
			<point x="480" y="315"/>
			<point x="407" y="381"/>
			<point x="285" y="429" type="curve" smooth="yes"/>
			<point x="173" y="473"/>
			<point x="118" y="513"/>
			<point x="118" y="565" type="curve" smooth="yes"/>
			<point x="118" y="613"/>
			<point x="157" y="652"/>
			<point x="215" y="652" type="curve" smooth="yes"/>
			<point x="284" y="652"/>
			<point x="331" y="616"/>
			<point x="392" y="570" type="curve"/>
			<point x="472" y="700" type="line"/>
			<point x="463" y="706" type="line"/>
			<point x="408" y="679" type="line"/>
			<point x="389" y="679"/>
			<point x="330" y="710"/>
			<point x="263" y="710" type="curve" smooth="yes"/>
			<point x="156" y="710"/>
			<point x="57" y="627"/>
			<point x="57" y="524" type="curve" smooth="yes"/>
			<point x="57" y="422"/>
			<point x="114" y="369"/>
			<point x="286" y="301" type="curve" smooth="yes"/>
			<point x="370" y="268"/>
			<point x="427" y="237"/>
			<point x="427" y="169" type="curve" smooth="yes"/>
			<point x="427" y="105"/>
			<point x="372" y="65"/>
			<point x="295" y="65" type="curve" smooth="yes"/>
			<point x="232" y="65"/>
			<point x="144" y="82"/>
			<point x="100" y="151" type="curve"/>
			<point x="94" y="151" type="line"/>
			<point x="78" y="87"/>
			<point x="48" y="44"/>
			<point x="30" y="0" type="curve"/>
			<point x="39" y="-6" type="line"/>
			<point x="94" y="27" type="line"/>
			<point x="111" y="25"/>
			<point x="179" y="-10"/>
		</contour>
	</outline>
</glyph>
<glyph name="T" format="2">
	<advance width="675"/>
	<unicode hex="0054"/>
	<outline>
		<contour>
			<point x="242" y="10" type="curve"/>
			<point x="242" y="0" type="line"/>
			<point x="420" y="0" type="line"/>
			<point x="420" y="10" type="line"/>
			<point x="383" y="50"/>
			<point x="370" y="56"/>
			<point x="370" y="86" type="curve"/>
			<point x="370" y="624" type="line"/>
			<point x="462" y="625"/>
			<point x="550" y="627"/>
			<point x="610" y="629" type="curve"/>
			<point x="670" y="699" type="line"/>
			<point x="666" y="708" type="line"/>
			<point x="571" y="688"/>
			<point x="272" y="704"/>
			<point x="91" y="704" type="curve"/>
			<point x="32" y="704"/>
			<point x="5" y="670"/>
			<point x="5" y="629" type="curve"/>
			<point x="5" y="588"/>
			<point x="37" y="565"/>
			<point x="57" y="555" type="curve"/>
			<point x="63" y="561" type="line"/>
			<point x="57" y="587"/>
			<point x="48" y="623"/>
			<point x="138" y="623" type="curve"/>
			<point x="270" y="623" type="line"/>
			<point x="270" y="84" type="line" smooth="yes"/>
			<point x="270" y="63"/>
			<point x="252" y="31"/>
		</contour>
	</outline>
</glyph>
<glyph name="U" format="2">
	<advance width="721"/>
	<unicode hex="0055"/>
	<outline>
		<contour>
			<point x="322" y="-10" type="curve"/>
			<point x="322" y="-10" type="line"/>
			<point x="414" y="-10"/>
			<point x="466" y="26"/>
			<point x="531" y="79" type="curve"/>
			<point x="547" y="-9" type="line"/>
			<point x="591" y="-4"/>
			<point x="637" y="-1"/>
			<point x="681" y="0" type="curve"/>
			<point x="681" y="10" type="line"/>
			<point x="660" y="41"/>
			<point x="631" y="71"/>
			<point x="631" y="101" type="curve"/>
			<point x="630" y="218"/>
			<point x="625" y="448"/>
			<point x="634" y="624" type="curve"/>
			<point x="635" y="654"/>
			<point x="651" y="673"/>
			<point x="661" y="690" type="curve"/>
			<point x="661" y="700" type="line"/>
			<point x="460" y="700" type="line"/>
			<point x="460" y="690" type="line"/>
			<point x="504" y="665"/>
			<point x="527" y="647"/>
			<point x="527" y="614" type="curve"/>
			<point x="527" y="121" type="line"/>
			<point x="460" y="61"/>
			<point x="405" y="51"/>
			<point x="354" y="51" type="curve"/>
			<point x="239" y="51"/>
			<point x="193" y="120"/>
			<point x="193" y="259" type="curve"/>
			<point x="193" y="577" type="line" smooth="yes"/>
			<point x="193" y="641"/>
			<point x="205" y="648"/>
			<point x="250" y="690" type="curve"/>
			<point x="250" y="700" type="line"/>
			<point x="40" y="700" type="line"/>
			<point x="40" y="689" type="line"/>
			<point x="58" y="673"/>
			<point x="84" y="651"/>
			<point x="85" y="607" type="curve"/>
			<point x="90" y="382"/>
			<point x="93" y="306"/>
			<point x="92" y="211" type="curve"/>
			<point x="90" y="51"/>
			<point x="191" y="-10"/>
		</contour>
	</outline>
</glyph>
<glyph name="V" format="2">
	<advance width="743"/>
	<unicode hex="0056"/>
	<outline>
		<contour>
			<point x="371" y="-10" type="curve"/>
			<point x="399" y="0" type="line"/>
			<point x="420" y="116"/>
			<point x="706" y="652"/>
			<point x="738" y="690" type="curve"/>
			<point x="738" y="700" type="line"/>
			<point x="520" y="700" type="line"/>
			<point x="520" y="690" type="line"/>
			<point x="598" y="669"/>
			<point x="620" y="643"/>
			<point x="597" y="590" type="curve" smooth="yes"/>
			<point x="401" y="142" type="line"/>
			<point x="205" y="564" type="line" smooth="yes"/>
			<point x="174" y="630"/>
			<point x="172" y="642"/>
			<point x="242" y="690" type="curve"/>
			<point x="242" y="700" type="line"/>
			<point x="5" y="700" type="line"/>
			<point x="5" y="690" type="line"/>
			<point x="135" y="463"/>
			<point x="269" y="220"/>
		</contour>
	</outline>
</glyph>
<glyph name="W" format="2">
	<advance width="853"/>
	<unicode hex="0057"/>
	<outline>
		<contour>
			<point x="234" y="-5" type="curve"/>
			<point x="234" y="-5" type="line"/>
			<point x="263" y="-3" type="line"/>
			<point x="287" y="94"/>
			<point x="338" y="253"/>
			<point x="423" y="473" type="curve"/>
			<point x="574" y="-5" type="line"/>
			<point x="605" y="-3" type="line"/>
			<point x="621" y="107"/>
			<point x="773" y="501"/>
			<point x="848" y="695" type="curve"/>
			<point x="848" y="700" type="line"/>
			<point x="717" y="700" type="line"/>
			<point x="717" y="690" type="line"/>
			<point x="750" y="673"/>
			<point x="766" y="651"/>
			<point x="752" y="610" type="curve"/>
			<point x="610" y="191" type="line"/>
			<point x="497" y="604" type="line" smooth="yes"/>
			<point x="483" y="655"/>
			<point x="505" y="667"/>
			<point x="537" y="690" type="curve"/>
			<point x="537" y="700" type="line"/>
			<point x="340" y="700" type="line"/>
			<point x="340" y="690" type="line"/>
			<point x="372" y="647"/>
			<point x="383" y="608"/>
			<point x="392" y="563" type="curve"/>
			<point x="270" y="183" type="line"/>
			<point x="141" y="610" type="line" smooth="yes"/>
			<point x="135" y="631"/>
			<point x="150" y="656"/>
			<point x="191" y="690" type="curve"/>
			<point x="191" y="700" type="line"/>
			<point x="5" y="700" type="line"/>
			<point x="5" y="695" type="line"/>
			<point x="20" y="651"/>
			<point x="207" y="90"/>
		</contour>
	</outline>
</glyph>
<glyph name="X" format="2">
	<advance width="698"/>
	<unicode hex="0058"/>
	<outline>
		<contour>
			<point x="15" y="0" type="line"/>
			<point x="230" y="0" type="line"/>
			<point x="230" y="10" type="line"/>
			<point x="175" y="28"/>
			<point x="133" y="55"/>
			<point x="155" y="84" type="curve" smooth="yes"/>
			<point x="331" y="318" type="line"/>
			<point x="395" y="234"/>
			<point x="455" y="153"/>
			<point x="515" y="71" type="curve" smooth="yes"/>
			<point x="526" y="56"/>
			<point x="509" y="32"/>
			<point x="469" y="8" type="curve"/>
			<point x="469" y="0" type="line"/>
			<point x="684" y="0" type="line"/>
			<point x="688" y="11" type="line"/>
			<point x="586" y="138"/>
			<point x="487" y="264"/>
			<point x="397" y="383" type="curve"/>
			<point x="667" y="690" type="line"/>
			<point x="662" y="700" type="line"/>
			<point x="446" y="700" type="line"/>
			<point x="446" y="690" type="line"/>
			<point x="509" y="675"/>
			<point x="537" y="658"/>
			<point x="522" y="635" type="curve" smooth="yes"/>
			<point x="375" y="416" type="line"/>
			<point x="315" y="497"/>
			<point x="259" y="571"/>
			<point x="209" y="644" type="curve" smooth="yes"/>
			<point x="200" y="658"/>
			<point x="219" y="680"/>
			<point x="244" y="690" type="curve"/>
			<point x="244" y="700" type="line"/>
			<point x="47" y="700" type="line"/>
			<point x="42" y="690" type="line"/>
			<point x="131" y="581"/>
			<point x="220" y="467"/>
			<point x="306" y="353" type="curve"/>
			<point x="10" y="10" type="line"/>
		</contour>
	</outline>
</glyph>
<glyph name="Y" format="2">
	<advance width="661"/>
	<unicode hex="0059"/>
	<outline>
		<contour>
			<point x="255" y="0" type="line"/>
			<point x="473" y="0" type="line"/>
			<point x="473" y="10" type="line"/>
			<point x="434" y="32"/>
			<point x="393" y="49"/>
			<point x="393" y="83" type="curve" smooth="yes"/>
			<point x="393" y="350" type="line"/>
			<point x="651" y="692" type="line"/>
			<point x="647" y="699" type="line"/>
			<point x="433" y="700" type="line"/>
			<point x="433" y="690" type="line"/>
			<point x="478" y="676"/>
			<point x="505" y="663"/>
			<point x="530" y="645" type="curve"/>
			<point x="483" y="554"/>
			<point x="434" y="482"/>
			<point x="375" y="391" type="curve"/>
			<point x="174" y="639" type="line"/>
			<point x="182" y="661"/>
			<point x="200" y="679"/>
			<point x="211" y="690" type="curve"/>
			<point x="211" y="700" type="line"/>
			<point x="15" y="700" type="line"/>
			<point x="10" y="690" type="line"/>
			<point x="283" y="321" type="line"/>
			<point x="283" y="99" type="line" smooth="yes"/>
			<point x="283" y="63"/>
			<point x="277" y="36"/>
			<point x="255" y="10" type="curve"/>
		</contour>
	</outline>
</glyph>
<glyph name="Z" format="2">
	<advance width="672"/>
	<unicode hex="005A"/>
	<outline>
		<contour>
			<point x="83" y="-21" type="line"/>
			<point x="121" y="0"/>
			<point x="154" y="12"/>
			<point x="212" y="12" type="curve" smooth="yes"/>
			<point x="316" y="12"/>
			<point x="503" y="-10"/>
			<point x="542" y="-10" type="curve"/>
			<point x="578" y="30"/>
			<point x="607" y="74"/>
			<point x="642" y="142" type="curve"/>
			<point x="624" y="143" type="line"/>
			<point x="590" y="111"/>
			<point x="558" y="91"/>
			<point x="492" y="91" type="curve" smooth="yes"/>
			<point x="452" y="91"/>
			<point x="305" y="104"/>
			<point x="222" y="105" type="curve"/>
			<point x="306" y="257"/>
			<point x="412" y="417"/>
			<point x="503" y="566" type="curve" smooth="yes"/>
			<point x="539" y="625"/>
			<point x="567" y="662"/>
			<point x="638" y="692" type="curve"/>
			<point x="625" y="710" type="line"/>
			<point x="572" y="704"/>
			<point x="536" y="700"/>
			<point x="487" y="700" type="curve" smooth="yes"/>
			<point x="370" y="700"/>
			<point x="225" y="703"/>
			<point x="109" y="710" type="curve"/>
			<point x="30" y="560" type="line"/>
			<point x="49" y="551" type="line"/>
			<point x="91" y="610"/>
			<point x="231" y="616"/>
			<point x="461" y="598" type="curve"/>
			<point x="376" y="465"/>
			<point x="282" y="296"/>
			<point x="184" y="143" type="curve" smooth="yes"/>
			<point x="140" y="74"/>
			<point x="97" y="33"/>
			<point x="33" y="-12" type="curve"/>
			<point x="33" y="-16" type="line"/>
		</contour>
	</outline>
</glyph>
<glyph name="a" format="2">
	<advance width="432"/>
	<unicode hex="0061"/>
	<outline>
		<contour>
			<point x="106" y="-10" type="curve"/>
			<point x="111" y="-10" type="line"/>
			<point x="263" y="88" type="line"/>
			<point x="265" y="71"/>
			<point x="314" y="13"/>
			<point x="347" y="-10" type="curve"/>
			<point x="370" y="21"/>
			<point x="394" y="46"/>
			<point x="417" y="65" type="curve"/>
			<point x="417" y="70" type="line"/>
			<point x="386" y="87"/>
			<point x="363" y="119"/>
			<point x="363" y="141" type="curve" smooth="yes"/>
			<point x="365" y="363" type="line" smooth="yes"/>
			<point x="365" y="403"/>
			<point x="280" y="460"/>
			<point x="240" y="460" type="curve" smooth="yes"/>
			<point x="180" y="460"/>
			<point x="87" y="375"/>
			<point x="35" y="318" type="curve"/>
			<point x="48" y="302" type="line"/>
			<point x="94" y="345"/>
			<point x="138" y="373"/>
			<point x="189" y="373" type="curve" smooth="yes"/>
			<point x="230" y="373"/>
			<point x="267" y="353"/>
			<point x="267" y="317" type="curve" smooth="yes"/>
			<point x="267" y="300" type="line"/>
			<point x="20" y="162" type="line"/>
			<point x="20" y="109"/>
			<point x="58" y="15"/>
		</contour>
		<contour>
			<point x="178" y="90" type="curve" smooth="yes"/>
			<point x="148" y="90"/>
			<point x="129" y="119"/>
			<point x="129" y="149" type="curve" smooth="yes"/>
			<point x="129" y="183"/>
			<point x="146" y="203"/>
			<point x="178" y="223" type="curve" smooth="yes"/>
			<point x="206" y="241"/>
			<point x="239" y="257"/>
			<point x="267" y="271" type="curve"/>
			<point x="263" y="118" type="line"/>
			<point x="243" y="108"/>
			<point x="206" y="90"/>
		</contour>
	</outline>
</glyph>
<glyph name="b" format="2">
	<advance width="460"/>
	<unicode hex="0062"/>
	<outline>
		<contour>
			<point x="193" y="-10" type="curve"/>
			<point x="255" y="19"/>
			<point x="335" y="64"/>
			<point x="363" y="86" type="curve" smooth="yes"/>
			<point x="415" y="127"/>
			<point x="435" y="182"/>
			<point x="435" y="255" type="curve" smooth="yes"/>
			<point x="435" y="345"/>
			<point x="364" y="427"/>
			<point x="274" y="450" type="curve"/>
			<point x="155" y="373" type="line"/>
			<point x="163" y="704" type="line"/>
			<point x="156" y="708" type="line"/>
			<point x="30" y="650" type="line"/>
			<point x="30" y="645" type="line"/>
			<point x="39" y="624"/>
			<point x="62" y="493"/>
			<point x="62" y="315" type="curve" smooth="yes"/>
			<point x="62" y="90" type="line"/>
			<point x="75" y="57"/>
			<point x="158" y="-10"/>
		</contour>
		<contour>
			<point x="269" y="64" type="curve"/>
			<point x="221" y="74"/>
			<point x="172" y="91"/>
			<point x="165" y="132" type="curve" smooth="yes"/>
			<point x="157" y="176"/>
			<point x="155" y="273"/>
			<point x="155" y="337" type="curve"/>
			<point x="169" y="348"/>
			<point x="189" y="356"/>
			<point x="225" y="356" type="curve" smooth="yes"/>
			<point x="292" y="356"/>
			<point x="335" y="280"/>
			<point x="335" y="210" type="curve" smooth="yes"/>
			<point x="335" y="150"/>
			<point x="315" y="99"/>
		</contour>
	</outline>
</glyph>
<glyph name="c" format="2">
	<advance width="372"/>
	<unicode hex="0063"/>
	<outline>
		<contour>
			<point x="170" y="-10" type="curve"/>
			<point x="170" y="-10" type="line"/>
			<point x="190" y="-10"/>
			<point x="267" y="32"/>
			<point x="338" y="80" type="curve"/>
			<point x="349" y="108" type="line"/>
			<point x="344" y="110" type="line"/>
			<point x="316" y="96"/>
			<point x="286" y="90"/>
			<point x="249" y="90" type="curve"/>
			<point x="169" y="90"/>
			<point x="133" y="154"/>
			<point x="133" y="244" type="curve"/>
			<point x="133" y="265"/>
			<point x="141" y="324"/>
			<point x="165" y="372" type="curve"/>
			<point x="198" y="364"/>
			<point x="244" y="343"/>
			<point x="275" y="321" type="curve"/>
			<point x="367" y="388" type="line"/>
			<point x="367" y="392" type="line"/>
			<point x="331" y="410"/>
			<point x="291" y="432"/>
			<point x="247" y="460" type="curve"/>
			<point x="192" y="426"/>
			<point x="136" y="394"/>
			<point x="81" y="366" type="curve"/>
			<point x="55" y="308"/>
			<point x="40" y="246"/>
			<point x="40" y="192" type="curve"/>
			<point x="40" y="63"/>
			<point x="102" y="10"/>
		</contour>
	</outline>
</glyph>
<glyph name="d" format="2">
	<advance width="493"/>
	<unicode hex="0064"/>
	<outline>
		<contour>
			<point x="349" y="-11" type="line"/>
			<point x="482" y="79" type="line"/>
			<point x="483" y="89" type="line"/>
			<point x="443" y="89"/>
			<point x="426" y="106"/>
			<point x="426" y="156" type="curve" smooth="yes"/>
			<point x="426" y="707" type="line"/>
			<point x="417" y="710" type="line"/>
			<point x="363" y="689"/>
			<point x="313" y="668"/>
			<point x="266" y="643" type="curve"/>
			<point x="266" y="633" type="line"/>
			<point x="306" y="623"/>
			<point x="326" y="602"/>
			<point x="326" y="562" type="curve" smooth="yes"/>
			<point x="326" y="425" type="line"/>
			<point x="252" y="408" type="line" smooth="yes"/>
			<point x="113" y="376"/>
			<point x="25" y="290"/>
			<point x="25" y="170" type="curve" smooth="yes"/>
			<point x="25" y="70"/>
			<point x="76" y="10"/>
			<point x="184" y="-10" type="curve"/>
			<point x="218" y="23"/>
			<point x="269" y="53"/>
			<point x="321" y="86" type="curve"/>
			<point x="331" y="45"/>
			<point x="338" y="19"/>
			<point x="344" y="-10" type="curve"/>
		</contour>
		<contour>
			<point x="229" y="91" type="curve" smooth="yes"/>
			<point x="154" y="91"/>
			<point x="107" y="144"/>
			<point x="107" y="216" type="curve" smooth="yes"/>
			<point x="107" y="291"/>
			<point x="154" y="355"/>
			<point x="228" y="355" type="curve" smooth="yes"/>
			<point x="302" y="355"/>
			<point x="340" y="300"/>
			<point x="340" y="228" type="curve" smooth="yes"/>
			<point x="340" y="141"/>
			<point x="292" y="91"/>
		</contour>
	</outline>
</glyph>
<glyph name="e" format="2">
	<advance width="359"/>
	<unicode hex="0065"/>
	<outline>
		<contour>
			<point x="219" y="-10" type="curve"/>
			<point x="219" y="-10" type="line"/>
			<point x="354" y="95" type="line"/>
			<point x="336" y="122" type="line"/>
			<point x="315" y="108"/>
			<point x="279" y="100"/>
			<point x="249" y="100" type="curve"/>
			<point x="199" y="100"/>
			<point x="163" y="119"/>
			<point x="142" y="156" type="curve"/>
			<point x="342" y="326" type="line"/>
			<point x="324" y="407"/>
			<point x="277" y="453"/>
			<point x="238" y="460" type="curve"/>
			<point x="53" y="355" type="line"/>
			<point x="35" y="307"/>
			<point x="25" y="251"/>
			<point x="25" y="197" type="curve"/>
			<point x="25" y="87"/>
			<point x="89" y="-10"/>
		</contour>
		<contour>
			<point x="131" y="183" type="curve"/>
			<point x="131" y="183" type="line"/>
			<point x="124" y="204"/>
			<point x="121" y="228"/>
			<point x="121" y="257" type="curve"/>
			<point x="121" y="300"/>
			<point x="130" y="356"/>
			<point x="160" y="385" type="curve"/>
			<point x="177" y="385"/>
			<point x="245" y="333"/>
			<point x="245" y="294" type="curve"/>
			<point x="229" y="267"/>
			<point x="176" y="221"/>
		</contour>
	</outline>
</glyph>
<glyph name="f" format="2">
	<advance width="318"/>
	<unicode hex="0066"/>
	<outline>
		<contour>
			<point x="75" y="360" type="line"/>
			<point x="75" y="-6" type="line"/>
			<point x="179" y="-1" type="line"/>
			<point x="175" y="360" type="line"/>
			<point x="219" y="361"/>
			<point x="262" y="361"/>
			<point x="306" y="360" type="curve"/>
			<point x="316" y="450" type="line"/>
			<point x="269" y="451"/>
			<point x="222" y="451"/>
			<point x="175" y="450" type="curve"/>
			<point x="175" y="552"/>
			<point x="175" y="611"/>
			<point x="187" y="632" type="curve"/>
			<point x="212" y="631"/>
			<point x="282" y="606"/>
			<point x="315" y="553" type="curve"/>
			<point x="418" y="625" type="line"/>
			<point x="418" y="627" type="line"/>
			<point x="381" y="672"/>
			<point x="309" y="710"/>
			<point x="229" y="710" type="curve"/>
			<point x="178" y="669"/>
			<point x="126" y="632"/>
			<point x="75" y="599" type="curve"/>
			<point x="75" y="435" type="line"/>
			<point x="10" y="375" type="line"/>
			<point x="10" y="360" type="line"/>
		</contour>
	</outline>
</glyph>
<glyph name="g" format="2">
	<advance width="517"/>
	<unicode hex="0067"/>
	<outline>
		<contour>
			<point x="236" y="-190" type="curve"/>
			<point x="296" y="-176"/>
			<point x="391" y="-140"/>
			<point x="441" y="-40" type="curve"/>
			<point x="441" y="59"/>
			<point x="400" y="114"/>
			<point x="320" y="148" type="curve"/>
			<point x="430" y="301" type="line"/>
			<point x="514" y="301" type="line"/>
			<point x="522" y="381" type="line"/>
			<point x="393" y="381" type="line"/>
			<point x="361" y="412"/>
			<point x="301" y="449"/>
			<point x="254" y="460" type="curve"/>
			<point x="54" y="331" type="line"/>
			<point x="37" y="302"/>
			<point x="30" y="268"/>
			<point x="30" y="238" type="curve" smooth="yes"/>
			<point x="30" y="151"/>
			<point x="90" y="103"/>
			<point x="140" y="86" type="curve"/>
			<point x="116" y="66"/>
			<point x="81" y="46"/>
			<point x="44" y="22" type="curve"/>
			<point x="10" y="-108"/>
			<point x="110" y="-182"/>
		</contour>
		<contour>
			<point x="298" y="-133" type="curve"/>
			<point x="218" y="-133"/>
			<point x="140" y="-90"/>
			<point x="140" y="-20" type="curve" smooth="yes"/>
			<point x="140" y="20"/>
			<point x="154" y="54"/>
			<point x="176" y="76" type="curve"/>
			<point x="285" y="56"/>
			<point x="341" y="22"/>
			<point x="341" y="-49" type="curve" smooth="yes"/>
			<point x="341" y="-81"/>
			<point x="318" y="-124"/>
		</contour>
		<contour>
			<point x="277" y="162" type="curve"/>
			<point x="171" y="181"/>
			<point x="125" y="218"/>
			<point x="125" y="278" type="curve" smooth="yes"/>
			<point x="125" y="317"/>
			<point x="149" y="347"/>
			<point x="166" y="360" type="curve"/>
			<point x="241" y="352"/>
			<point x="318" y="319"/>
			<point x="318" y="246" type="curve" smooth="yes"/>
			<point x="318" y="213"/>
			<point x="302" y="185"/>
		</contour>
	</outline>
</glyph>
<glyph name="h" format="2">
	<advance width="534"/>
	<unicode hex="0068"/>
	<outline>
		<contour>
			<point x="317" y="-10" type="curve"/>
			<point x="317" y="-10" type="line"/>
			<point x="390" y="10"/>
			<point x="509" y="106"/>
			<point x="509" y="233" type="curve"/>
			<point x="509" y="353"/>
			<point x="419" y="443"/>
			<point x="308" y="460" type="curve"/>
			<point x="257" y="427"/>
			<point x="224" y="396"/>
			<point x="160" y="360" type="curve"/>
			<point x="160" y="710" type="line"/>
			<point x="40" y="688" type="line"/>
			<point x="40" y="682" type="line"/>
			<point x="50" y="613"/>
			<point x="60" y="530"/>
			<point x="60" y="485" type="curve"/>
			<point x="60" y="0" type="line"/>
			<point x="160" y="0" type="line"/>
			<point x="160" y="321" type="line"/>
			<point x="189" y="341"/>
			<point x="220" y="353"/>
			<point x="261" y="353" type="curve"/>
			<point x="351" y="353"/>
			<point x="419" y="273"/>
			<point x="419" y="163" type="curve"/>
			<point x="419" y="97"/>
			<point x="383" y="35"/>
			<point x="325" y="35" type="curve"/>
			<point x="311" y="45"/>
			<point x="298" y="68"/>
			<point x="282" y="110" type="curve"/>
			<point x="254" y="102"/>
			<point x="213" y="73"/>
			<point x="213" y="56" type="curve"/>
			<point x="224" y="7"/>
			<point x="267" y="-10"/>
		</contour>
	</outline>
</glyph>
<glyph name="i" format="2">
	<advance width="257"/>
	<unicode hex="0069"/>
	<outline>
		<contour>
			<point x="150" y="-10" type="curve"/>
			<point x="150" y="-10" type="line"/>
			<point x="189" y="24"/>
			<point x="218" y="54"/>
			<point x="257" y="80" type="curve"/>
			<point x="257" y="90" type="line"/>
			<point x="210" y="90"/>
			<point x="163" y="107"/>
			<point x="163" y="181" type="curve"/>
			<point x="163" y="391" type="line"/>
			<point x="150" y="424"/>
			<point x="111" y="454"/>
			<point x="73" y="460" type="curve"/>
			<point x="20" y="370" type="line"/>
			<point x="20" y="360" type="line"/>
			<point x="47" y="350"/>
			<point x="70" y="338"/>
			<point x="68" y="280" type="curve"/>
			<point x="63" y="90" type="line" smooth="yes"/>
			<point x="62" y="56"/>
			<point x="105" y="5"/>
		</contour>
		<contour>
			<point x="92" y="710" type="line"/>
			<point x="75" y="536" type="line"/>
			<point x="92" y="536" type="line"/>
			<point x="167" y="710" type="line"/>
		</contour>
	</outline>
</glyph>
<glyph name="j" format="2">
	<advance width="222"/>
	<unicode hex="006A"/>
	<outline>
		<contour>
			<point x="-10" y="-190" type="line"/>
			<point x="120" y="-170"/>
			<point x="168" y="-98"/>
			<point x="168" y="-12" type="curve" smooth="yes"/>
			<point x="168" y="144"/>
			<point x="162" y="399"/>
			<point x="172" y="456" type="curve"/>
			<point x="165" y="461" type="line"/>
			<point x="29" y="381" type="line"/>
			<point x="29" y="376" type="line"/>
			<point x="51" y="354"/>
			<point x="68" y="325"/>
			<point x="68" y="265" type="curve" smooth="yes"/>
			<point x="68" y="-20" type="line" smooth="yes"/>
			<point x="68" y="-98"/>
			<point x="51" y="-151"/>
			<point x="-9" y="-171" type="curve"/>
		</contour>
		<contour>
			<point x="70" y="555" type="line"/>
			<point x="100" y="555" type="line"/>
			<point x="167" y="710" type="line"/>
			<point x="98" y="705" type="line"/>
		</contour>
	</outline>
</glyph>
<glyph name="k" format="2">
	<advance width="430"/>
	<unicode hex="006B"/>
	<outline>
		<contour>
			<point x="53" y="-4" type="curve"/>
			<point x="158" y="0" type="line"/>
			<point x="153" y="168" type="line"/>
			<point x="154" y="168" type="line"/>
			<point x="235" y="199"/>
			<point x="306" y="142"/>
			<point x="310" y="0" type="curve"/>
			<point x="415" y="0" type="line"/>
			<point x="415" y="114"/>
			<point x="365" y="209"/>
			<point x="285" y="235" type="curve"/>
			<point x="312" y="252"/>
			<point x="349" y="272"/>
			<point x="366" y="288" type="curve"/>
			<point x="407" y="356"/>
			<point x="359" y="453"/>
			<point x="289" y="460" type="curve"/>
			<point x="254" y="438"/>
			<point x="199" y="384"/>
			<point x="153" y="359" type="curve"/>
			<point x="153" y="704" type="line"/>
			<point x="149" y="710" type="line"/>
			<point x="40" y="696" type="line"/>
			<point x="40" y="691" type="line" smooth="yes"/>
			<point x="54" y="474"/>
			<point x="51" y="360"/>
		</contour>
		<contour>
			<point x="153" y="196" type="curve"/>
			<point x="153" y="315" type="line"/>
			<point x="205" y="388"/>
			<point x="289" y="388"/>
			<point x="289" y="321" type="curve" smooth="yes"/>
			<point x="289" y="252"/>
			<point x="216" y="212"/>
		</contour>
	</outline>
</glyph>
<glyph name="l" format="2">
	<advance width="250"/>
	<unicode hex="006C"/>
	<outline>
		<contour>
			<point x="136" y="-10" type="curve"/>
			<point x="143" y="-10" type="line"/>
			<point x="240" y="55" type="line"/>
			<point x="240" y="70" type="line"/>
			<point x="206" y="80"/>
			<point x="166" y="107"/>
			<point x="166" y="181" type="curve" smooth="yes"/>
			<point x="166" y="706" type="line"/>
			<point x="158" y="709" type="line"/>
			<point x="40" y="653" type="line"/>
			<point x="40" y="648" type="line"/>
			<point x="54" y="610"/>
			<point x="66" y="572"/>
			<point x="66" y="524" type="curve" smooth="yes"/>
			<point x="66" y="80" type="line" smooth="yes"/>
			<point x="66" y="55"/>
			<point x="104" y="0"/>
		</contour>
	</outline>
</glyph>
<glyph name="m" format="2">
	<advance width="710"/>
	<unicode hex="006D"/>
	<outline>
		<contour>
			<point x="84" y="258" type="curve"/>
			<point x="84" y="0" type="line"/>
			<point x="189" y="0" type="line"/>
			<point x="183" y="107"/>
			<point x="184" y="211"/>
			<point x="184" y="328" type="curve"/>
			<point x="200" y="345"/>
			<point x="228" y="360"/>
			<point x="253" y="360" type="curve"/>
			<point x="303" y="360"/>
			<point x="322" y="327"/>
			<point x="322" y="268" type="curve"/>
			<point x="322" y="179"/>
			<point x="322" y="89"/>
			<point x="319" y="0" type="curve"/>
			<point x="425" y="0" type="line"/>
			<point x="421" y="100"/>
			<point x="422" y="200"/>
			<point x="422" y="322" type="curve"/>
			<point x="433" y="336"/>
			<point x="464" y="360"/>
			<point x="499" y="360" type="curve"/>
			<point x="538" y="360"/>
			<point x="562" y="328"/>
			<point x="562" y="278" type="curve"/>
			<point x="562" y="189"/>
			<point x="559" y="89"/>
			<point x="558" y="0" type="curve"/>
			<point x="665" y="0" type="line"/>
			<point x="665" y="106"/>
			<point x="662" y="212"/>
			<point x="662" y="318" type="curve"/>
			<point x="662" y="397"/>
			<point x="594" y="460"/>
			<point x="524" y="460" type="curve"/>
			<point x="481" y="420"/>
			<point x="454" y="385"/>
			<point x="417" y="364" type="curve"/>
			<point x="400" y="411"/>
			<point x="327" y="460"/>
			<point x="269" y="460" type="curve"/>
			<point x="239" y="427"/>
			<point x="214" y="395"/>
			<point x="180" y="367" type="curve"/>
			<point x="167" y="400"/>
			<point x="135" y="431"/>
			<point x="100" y="460" type="curve"/>
			<point x="10" y="375" type="line"/>
			<point x="14" y="370" type="line"/>
			<point x="55" y="350"/>
			<point x="84" y="309"/>
		</contour>
	</outline>
</glyph>
<glyph name="n" format="2">
	<advance width="471"/>
	<unicode hex="006E"/>
	<outline>
		<contour>
			<point x="323" y="285" type="curve"/>
			<point x="323" y="-2" type="line"/>
			<point x="426" y="0" type="line"/>
			<point x="423" y="328" type="line" smooth="yes"/>
			<point x="422" y="396"/>
			<point x="366" y="459"/>
			<point x="284" y="460" type="curve"/>
			<point x="244" y="426"/>
			<point x="220" y="397"/>
			<point x="180" y="366" type="curve"/>
			<point x="178" y="412"/>
			<point x="134" y="437"/>
			<point x="71" y="460" type="curve"/>
			<point x="10" y="356" type="line"/>
			<point x="14" y="351" type="line"/>
			<point x="55" y="341"/>
			<point x="84" y="315"/>
			<point x="84" y="281" type="curve"/>
			<point x="80" y="0" type="line"/>
			<point x="187" y="0" type="line"/>
			<point x="184" y="311" type="line"/>
			<point x="195" y="343"/>
			<point x="229" y="363"/>
			<point x="260" y="363" type="curve"/>
			<point x="300" y="363"/>
			<point x="323" y="335"/>
		</contour>
	</outline>
</glyph>
<glyph name="o" format="2">
	<advance width="445"/>
	<unicode hex="006F"/>
	<outline>
		<contour>
			<point x="242" y="-9" type="curve"/>
			<point x="242" y="-9" type="line"/>
			<point x="291" y="32"/>
			<point x="354" y="76"/>
			<point x="390" y="118" type="curve"/>
			<point x="413" y="154"/>
			<point x="420" y="191"/>
			<point x="420" y="251" type="curve"/>
			<point x="420" y="363"/>
			<point x="339" y="450"/>
			<point x="214" y="460" type="curve"/>
			<point x="171" y="431"/>
			<point x="110" y="372"/>
			<point x="51" y="332" type="curve"/>
			<point x="29" y="299"/>
			<point x="25" y="261"/>
			<point x="25" y="211" type="curve"/>
			<point x="25" y="101"/>
			<point x="112" y="-9"/>
		</contour>
		<contour>
			<point x="275" y="76" type="curve"/>
			<point x="275" y="76" type="line"/>
			<point x="174" y="78"/>
			<point x="120" y="155"/>
			<point x="120" y="245" type="curve"/>
			<point x="120" y="305"/>
			<point x="138" y="343"/>
			<point x="160" y="365" type="curve"/>
			<point x="260" y="366"/>
			<point x="326" y="292"/>
			<point x="326" y="202" type="curve"/>
			<point x="326" y="152"/>
			<point x="311" y="94"/>
		</contour>
	</outline>
</glyph>
<glyph name="p" format="2">
	<advance width="549"/>
	<unicode hex="0070"/>
	<outline>
		<contour>
			<point x="93" y="-180" type="curve"/>
			<point x="93" y="-180" type="line"/>
			<point x="202" y="-180" type="line"/>
			<point x="199" y="-106"/>
			<point x="197" y="-33"/>
			<point x="196" y="39" type="curve"/>
			<point x="230" y="26"/>
			<point x="267" y="8"/>
			<point x="290" y="-10" type="curve"/>
			<point x="295" y="-10" type="line"/>
			<point x="463" y="90" type="line"/>
			<point x="494" y="121"/>
			<point x="524" y="168"/>
			<point x="524" y="238" type="curve"/>
			<point x="524" y="358"/>
			<point x="443" y="445"/>
			<point x="353" y="460" type="curve"/>
			<point x="348" y="460" type="line"/>
			<point x="297" y="425"/>
			<point x="248" y="385"/>
			<point x="197" y="340" type="curve"/>
			<point x="191" y="385"/>
			<point x="148" y="446"/>
			<point x="95" y="460" type="curve"/>
			<point x="10" y="370" type="line"/>
			<point x="12" y="360" type="line"/>
			<point x="52" y="370"/>
			<point x="96" y="343"/>
			<point x="99" y="287" type="curve"/>
			<point x="102" y="235"/>
			<point x="103" y="181"/>
			<point x="103" y="125" type="curve"/>
			<point x="73" y="106"/>
			<point x="37" y="79"/>
			<point x="15" y="49" type="curve"/>
			<point x="22" y="35" type="line"/>
			<point x="46" y="46"/>
			<point x="77" y="55"/>
			<point x="102" y="58" type="curve"/>
			<point x="100" y="-20"/>
			<point x="97" y="-100"/>
		</contour>
		<contour>
			<point x="359" y="84" type="curve"/>
			<point x="359" y="84" type="line"/>
			<point x="307" y="70"/>
			<point x="244" y="112"/>
			<point x="195" y="134" type="curve"/>
			<point x="195" y="186"/>
			<point x="195" y="237"/>
			<point x="197" y="290" type="curve"/>
			<point x="216" y="319"/>
			<point x="261" y="341"/>
			<point x="300" y="341" type="curve"/>
			<point x="374" y="341"/>
			<point x="424" y="279"/>
			<point x="424" y="199" type="curve"/>
			<point x="424" y="140"/>
			<point x="391" y="100"/>
		</contour>
	</outline>
</glyph>
<glyph name="q" format="2">
	<advance width="487"/>
	<unicode hex="0071"/>
	<outline>
		<contour>
			<point x="336" y="90" type="curve"/>
			<point x="326" y="-180" type="line"/>
			<point x="433" y="-180" type="line"/>
			<point x="427" y="37"/>
			<point x="431" y="253"/>
			<point x="437" y="463" type="curve"/>
			<point x="429" y="465" type="line"/>
			<point x="386" y="416" type="line"/>
			<point x="342" y="432"/>
			<point x="287" y="453"/>
			<point x="241" y="460" type="curve"/>
			<point x="236" y="460" type="line"/>
			<point x="179" y="420"/>
			<point x="118" y="381"/>
			<point x="71" y="351" type="curve"/>
			<point x="47" y="325"/>
			<point x="25" y="258"/>
			<point x="25" y="199" type="curve"/>
			<point x="25" y="98"/>
			<point x="83" y="13"/>
			<point x="159" y="-10" type="curve"/>
			<point x="164" y="-10" type="line"/>
			<point x="221" y="19"/>
			<point x="279" y="53"/>
		</contour>
		<contour>
			<point x="241" y="95" type="curve"/>
			<point x="241" y="95" type="line"/>
			<point x="159" y="95"/>
			<point x="120" y="161"/>
			<point x="120" y="241" type="curve"/>
			<point x="120" y="282"/>
			<point x="131" y="341"/>
			<point x="166" y="370" type="curve"/>
			<point x="221" y="370"/>
			<point x="285" y="350"/>
			<point x="327" y="325" type="curve"/>
			<point x="327" y="135" type="line"/>
			<point x="308" y="113"/>
			<point x="282" y="95"/>
		</contour>
	</outline>
</glyph>
<glyph name="r" format="2">
	<advance width="327"/>
	<unicode hex="0072"/>
	<outline>
		<contour>
			<point x="67" y="290" type="curve"/>
			<point x="66" y="-3" type="line"/>
			<point x="170" y="0" type="line"/>
			<point x="170" y="79"/>
			<point x="168" y="217"/>
			<point x="167" y="326" type="curve"/>
			<point x="188" y="345"/>
			<point x="222" y="339"/>
			<point x="267" y="317" type="curve"/>
			<point x="271" y="317" type="line"/>
			<point x="287" y="341"/>
			<point x="306" y="378"/>
			<point x="327" y="400" type="curve"/>
			<point x="303" y="427"/>
			<point x="266" y="450"/>
			<point x="235" y="460" type="curve"/>
			<point x="233" y="460" type="line"/>
			<point x="203" y="424"/>
			<point x="188" y="396"/>
			<point x="166" y="376" type="curve"/>
			<point x="157" y="421"/>
			<point x="120" y="436"/>
			<point x="77" y="460" type="curve"/>
			<point x="72" y="460" type="line"/>
			<point x="10" y="365" type="line"/>
			<point x="14" y="360" type="line"/>
			<point x="32" y="360"/>
			<point x="67" y="336"/>
		</contour>
	</outline>
</glyph>
<glyph name="s" format="2">
	<advance width="407"/>
	<unicode hex="0073"/>
	<outline>
		<contour>
			<point x="190" y="-10" type="curve" smooth="yes"/>
			<point x="271" y="-10"/>
			<point x="382" y="64"/>
			<point x="382" y="164" type="curve" smooth="yes"/>
			<point x="382" y="244"/>
			<point x="323" y="289"/>
			<point x="282" y="299" type="curve"/>
			<point x="252" y="277"/>
			<point x="229" y="259"/>
			<point x="193" y="241" type="curve"/>
			<point x="167" y="259"/>
			<point x="136" y="285"/>
			<point x="136" y="325" type="curve" smooth="yes"/>
			<point x="136" y="365"/>
			<point x="164" y="394"/>
			<point x="194" y="394" type="curve" smooth="yes"/>
			<point x="226" y="394"/>
			<point x="249" y="363"/>
			<point x="265" y="322" type="curve"/>
			<point x="271" y="318" type="line"/>
			<point x="375" y="380" type="line"/>
			<point x="357" y="428"/>
			<point x="284" y="460"/>
			<point x="232" y="460" type="curve"/>
			<point x="80" y="385" type="line"/>
			<point x="55" y="359"/>
			<point x="32" y="329"/>
			<point x="32" y="285" type="curve" smooth="yes"/>
			<point x="32" y="233"/>
			<point x="72" y="183"/>
			<point x="118" y="172" type="curve"/>
			<point x="193" y="214" type="line"/>
			<point x="243" y="214"/>
			<point x="281" y="178"/>
			<point x="281" y="120" type="curve" smooth="yes"/>
			<point x="281" y="67"/>
			<point x="250" y="33"/>
			<point x="213" y="33" type="curve" smooth="yes"/>
			<point x="165" y="33"/>
			<point x="142" y="79"/>
			<point x="131" y="129" type="curve"/>
			<point x="25" y="87" type="line"/>
			<point x="59" y="18"/>
			<point x="120" y="-10"/>
		</contour>
	</outline>
</glyph>
<glyph name="t" format="2">
	<advance width="323"/>
	<unicode hex="0074"/>
	<outline>
		<contour>
			<point x="171" y="-10" type="curve"/>
			<point x="298" y="100" type="line"/>
			<point x="291" y="113" type="line"/>
			<point x="222" y="84"/>
			<point x="171" y="92"/>
			<point x="171" y="167" type="curve" smooth="yes"/>
			<point x="171" y="360" type="line"/>
			<point x="297" y="360" type="line"/>
			<point x="313" y="450" type="line"/>
			<point x="171" y="450" type="line"/>
			<point x="171" y="577" type="line"/>
			<point x="162" y="577" type="line"/>
			<point x="10" y="370" type="line"/>
			<point x="10" y="360" type="line"/>
			<point x="71" y="360" type="line"/>
			<point x="71" y="90" type="line" smooth="yes"/>
			<point x="71" y="50"/>
			<point x="131" y="-10"/>
		</contour>
	</outline>
</glyph>
<glyph name="u" format="2">
	<advance width="456"/>
	<unicode hex="0075"/>
	<outline>
		<contour>
			<point x="170" y="-10" type="curve"/>
			<point x="289" y="64" type="line"/>
			<point x="296" y="52"/>
			<point x="320" y="1"/>
			<point x="371" y="-10" type="curve"/>
			<point x="441" y="75" type="line"/>
			<point x="441" y="82" type="line"/>
			<point x="408" y="99"/>
			<point x="387" y="119"/>
			<point x="387" y="170" type="curve" smooth="yes"/>
			<point x="387" y="457" type="line"/>
			<point x="384" y="460" type="line"/>
			<point x="287" y="404" type="line"/>
			<point x="287" y="110" type="line"/>
			<point x="274" y="87"/>
			<point x="248" y="77"/>
			<point x="231" y="77" type="curve" smooth="yes"/>
			<point x="195" y="77"/>
			<point x="173" y="97"/>
			<point x="173" y="167" type="curve" smooth="yes"/>
			<point x="173" y="363" type="line" smooth="yes"/>
			<point x="173" y="416"/>
			<point x="130" y="445"/>
			<point x="83" y="460" type="curve"/>
			<point x="10" y="375" type="line"/>
			<point x="10" y="368" type="line"/>
			<point x="28" y="368"/>
			<point x="73" y="349"/>
			<point x="73" y="300" type="curve" smooth="yes"/>
			<point x="74" y="90" type="line" smooth="yes"/>
			<point x="74" y="30"/>
			<point x="130" y="-10"/>
		</contour>
	</outline>
</glyph>
<glyph name="v" format="2">
	<advance width="470"/>
	<unicode hex="0076"/>
	<outline>
		<contour>
			<point x="211" y="-10" type="curve"/>
			<point x="230" y="-10" type="line"/>
			<point x="271" y="63"/>
			<point x="450" y="219"/>
			<point x="450" y="329" type="curve" smooth="yes"/>
			<point x="450" y="429"/>
			<point x="350" y="466"/>
			<point x="295" y="457" type="curve"/>
			<point x="253" y="411"/>
			<point x="193" y="328"/>
			<point x="172" y="298" type="curve"/>
			<point x="147" y="349"/>
			<point x="112" y="428"/>
			<point x="55" y="461" type="curve"/>
			<point x="-30" y="376" type="line"/>
			<point x="-30" y="367" type="line"/>
			<point x="1" y="354"/>
			<point x="39" y="320"/>
			<point x="78" y="253" type="curve" smooth="yes"/>
			<point x="123" y="177"/>
			<point x="187" y="58"/>
		</contour>
		<contour>
			<point x="276" y="101" type="curve"/>
			<point x="245" y="153"/>
			<point x="219" y="194"/>
			<point x="190" y="261" type="curve"/>
			<point x="202" y="297"/>
			<point x="234" y="345"/>
			<point x="283" y="345" type="curve" smooth="yes"/>
			<point x="318" y="345"/>
			<point x="355" y="319"/>
			<point x="355" y="271" type="curve" smooth="yes"/>
			<point x="355" y="230"/>
			<point x="331" y="163"/>
		</contour>
	</outline>
</glyph>
<glyph name="w" format="2">
	<advance width="756"/>
	<unicode hex="0077"/>
	<outline>
		<contour>
			<point x="78" y="305" type="curve"/>
			<point x="242" y="-10" type="line"/>
			<point x="275" y="-10" type="line"/>
			<point x="411" y="181" type="line"/>
			<point x="504" y="-10" type="line"/>
			<point x="523" y="-10" type="line"/>
			<point x="592" y="87"/>
			<point x="736" y="231"/>
			<point x="736" y="320" type="curve"/>
			<point x="736" y="405"/>
			<point x="649" y="461"/>
			<point x="574" y="455" type="curve"/>
			<point x="548" y="422"/>
			<point x="500" y="359"/>
			<point x="466" y="312" type="curve"/>
			<point x="428" y="387"/>
			<point x="387" y="460"/>
			<point x="314" y="460" type="curve"/>
			<point x="276" y="430"/>
			<point x="238" y="382"/>
			<point x="204" y="332" type="curve"/>
			<point x="135" y="431"/>
			<point x="113" y="460"/>
			<point x="38" y="460" type="curve"/>
			<point x="-30" y="360" type="line"/>
			<point x="-30" y="343" type="line"/>
			<point x="32" y="353"/>
			<point x="58" y="343"/>
		</contour>
		<contour>
			<point x="309" y="106" type="curve"/>
			<point x="309" y="106" type="line"/>
			<point x="217" y="299" type="line"/>
			<point x="228" y="313"/>
			<point x="253" y="352"/>
			<point x="292" y="352" type="curve"/>
			<point x="348" y="352"/>
			<point x="387" y="296"/>
			<point x="381" y="222" type="curve"/>
			<point x="378" y="181"/>
			<point x="350" y="143"/>
		</contour>
		<contour>
			<point x="566" y="110" type="curve"/>
			<point x="566" y="110" type="line"/>
			<point x="481" y="276" type="line"/>
			<point x="508" y="318"/>
			<point x="541" y="347"/>
			<point x="583" y="347" type="curve"/>
			<point x="619" y="347"/>
			<point x="660" y="317"/>
			<point x="660" y="262" type="curve"/>
			<point x="660" y="209"/>
			<point x="624" y="159"/>
		</contour>
	</outline>
</glyph>
<glyph name="x" format="2">
	<advance width="463"/>
	<unicode hex="0078"/>
	<outline>
		<contour>
			<point x="29" y="-71" type="line"/>
			<point x="77" y="-15"/>
			<point x="125" y="51"/>
			<point x="162" y="108" type="curve"/>
			<point x="190" y="46"/>
			<point x="248" y="-10"/>
			<point x="285" y="-10" type="curve"/>
			<point x="323" y="9"/>
			<point x="409" y="75"/>
			<point x="443" y="118" type="curve"/>
			<point x="428" y="136" type="line"/>
			<point x="411" y="119"/>
			<point x="375" y="102"/>
			<point x="348" y="102" type="curve" smooth="yes"/>
			<point x="270" y="102"/>
			<point x="230" y="177"/>
			<point x="238" y="347" type="curve"/>
			<point x="287" y="397"/>
			<point x="336" y="318"/>
			<point x="347" y="290" type="curve"/>
			<point x="355" y="288" type="line"/>
			<point x="386" y="317"/>
			<point x="421" y="337"/>
			<point x="453" y="356" type="curve"/>
			<point x="453" y="360" type="line"/>
			<point x="432" y="405"/>
			<point x="380" y="464"/>
			<point x="327" y="460" type="curve"/>
			<point x="232" y="379" type="line"/>
			<point x="226" y="411"/>
			<point x="169" y="461"/>
			<point x="117" y="461" type="curve"/>
			<point x="6" y="368" type="line"/>
			<point x="23" y="350" type="line"/>
			<point x="41" y="355"/>
			<point x="56" y="360"/>
			<point x="79" y="360" type="curve" smooth="yes"/>
			<point x="119" y="360"/>
			<point x="147" y="328"/>
			<point x="147" y="257" type="curve" smooth="yes"/>
			<point x="147" y="141"/>
			<point x="91" y="66"/>
			<point x="0" y="-53" type="curve"/>
		</contour>
	</outline>
</glyph>
<glyph name="y" format="2">
	<advance width="483"/>
	<unicode hex="0079"/>
	<outline>
		<contour>
			<point x="195" y="-180" type="curve"/>
			<point x="195" y="-180" type="line"/>
			<point x="334" y="19"/>
			<point x="463" y="236"/>
			<point x="463" y="343" type="curve"/>
			<point x="463" y="430"/>
			<point x="370" y="460"/>
			<point x="300" y="460" type="curve"/>
			<point x="268" y="432"/>
			<point x="221" y="356"/>
			<point x="182" y="291" type="curve"/>
			<point x="149" y="344"/>
			<point x="115" y="395"/>
			<point x="91" y="432" type="curve"/>
			<point x="75" y="456"/>
			<point x="50" y="464"/>
			<point x="27" y="460" type="curve"/>
			<point x="-30" y="382" type="line"/>
			<point x="-28" y="371" type="line"/>
			<point x="-7" y="367"/>
			<point x="17" y="350"/>
			<point x="38" y="322" type="curve"/>
			<point x="101" y="238"/>
			<point x="218" y="62"/>
			<point x="257" y="-21" type="curve"/>
			<point x="199" y="-108"/>
			<point x="89" y="-135"/>
			<point x="45" y="-150" type="curve"/>
			<point x="45" y="-170" type="line"/>
			<point x="95" y="-176"/>
			<point x="145" y="-180"/>
		</contour>
		<contour>
			<point x="313" y="69" type="curve"/>
			<point x="313" y="69" type="line"/>
			<point x="298" y="105"/>
			<point x="250" y="184"/>
			<point x="199" y="265" type="curve"/>
			<point x="216" y="296"/>
			<point x="258" y="345"/>
			<point x="304" y="345" type="curve"/>
			<point x="353" y="345"/>
			<point x="392" y="313"/>
			<point x="392" y="247" type="curve"/>
			<point x="392" y="201"/>
			<point x="362" y="139"/>
		</contour>
	</outline>
</glyph>
<glyph name="z" format="2">
	<advance width="453"/>
	<unicode hex="007A"/>
	<outline>
		<contour>
			<point x="24" y="3" type="curve"/>
			<point x="38" y="-10" type="line"/>
			<point x="91" y="38"/>
			<point x="215" y="-10"/>
			<point x="328" y="-10" type="curve"/>
			<point x="367" y="16"/>
			<point x="401" y="63"/>
			<point x="443" y="125" type="curve"/>
			<point x="420" y="130" type="line"/>
			<point x="391" y="95"/>
			<point x="365" y="90"/>
			<point x="335" y="90" type="curve"/>
			<point x="288" y="90"/>
			<point x="202" y="101"/>
			<point x="144" y="107" type="curve"/>
			<point x="221" y="214"/>
			<point x="339" y="338"/>
			<point x="419" y="453" type="curve"/>
			<point x="396" y="460" type="line"/>
			<point x="343" y="410"/>
			<point x="222" y="460"/>
			<point x="121" y="460" type="curve"/>
			<point x="91" y="440"/>
			<point x="52" y="392"/>
			<point x="15" y="350" type="curve"/>
			<point x="36" y="336" type="line"/>
			<point x="55" y="355"/>
			<point x="85" y="363"/>
			<point x="105" y="363" type="curve"/>
			<point x="156" y="363"/>
			<point x="225" y="353"/>
			<point x="292" y="344" type="curve"/>
			<point x="214" y="237"/>
			<point x="94" y="115"/>
		</contour>
	</outline>
</glyph>
<glyph name="AE" format="2">
	<advance width="848"/>
	<unicode hex="00C6"/>
	<outline>
		<contour>
			<point x="798" y="-35" type="curve"/>
			<point x="798" y="-35" type="line"/>
			<point x="808" y="-35" type="line"/>
			<point x="804" y="9"/>
			<point x="799" y="61"/>
			<point x="801" y="95" type="curve"/>
			<point x="791" y="95" type="line"/>
			<point x="767" y="75"/>
			<point x="743" y="65"/>
			<point x="703" y="65" type="curve"/>
			<point x="560" y="65" type="line"/>
			<point x="560" y="309" type="line"/>
			<point x="604" y="309" type="line" smooth="yes"/>
			<point x="726" y="309"/>
			<point x="746" y="304"/>
			<point x="788" y="275" type="curve"/>
			<point x="798" y="275" type="line"/>
			<point x="798" y="393" type="line"/>
			<point x="788" y="393" type="line"/>
			<point x="770" y="380"/>
			<point x="756" y="369"/>
			<point x="677" y="369" type="curve"/>
			<point x="560" y="369" type="line"/>
			<point x="560" y="632" type="line"/>
			<point x="590" y="640"/>
			<point x="625" y="640"/>
			<point x="644" y="640" type="curve"/>
			<point x="694" y="640"/>
			<point x="779" y="620"/>
			<point x="791" y="580" type="curve"/>
			<point x="801" y="580" type="line"/>
			<point x="801" y="700" type="line"/>
			<point x="416" y="700" type="line"/>
			<point x="416" y="690" type="line"/>
			<point x="430" y="677"/>
			<point x="439" y="669"/>
			<point x="443" y="658" type="curve"/>
			<point x="5" y="10" type="line"/>
			<point x="5" y="0" type="line"/>
			<point x="192" y="0" type="line"/>
			<point x="192" y="10" type="line"/>
			<point x="173" y="37"/>
			<point x="134" y="58"/>
			<point x="158" y="97" type="curve"/>
			<point x="289" y="309" type="line"/>
			<point x="452" y="309" type="line"/>
			<point x="451" y="100" type="line" smooth="yes"/>
			<point x="449" y="50"/>
			<point x="434" y="43"/>
			<point x="401" y="10" type="curve"/>
			<point x="401" y="0" type="line"/>
			<point x="701" y="0" type="line" smooth="yes"/>
			<point x="751" y="0"/>
			<point x="767" y="-5"/>
		</contour>
		<contour>
			<point x="453" y="369" type="line"/>
			<point x="326" y="369" type="line"/>
			<point x="456" y="599" type="line"/>
		</contour>
	</outline>
</glyph>
<glyph name="agrave" format="2">
	<advance width="418"/>
	<unicode hex="00E0"/>
	<anchor x="238" y="382" name="top"/>
	<anchor x="196" y="0" name="bottom"/>
	<outline>
		<contour>
			<point x="99" y="-10" type="curve"/>
			<point x="104" y="-10" type="line"/>
			<point x="150" y="22"/>
			<point x="197" y="44"/>
			<point x="243" y="70" type="curve"/>
			<point x="260" y="53"/>
			<point x="290" y="13"/>
			<point x="313" y="-10" type="curve"/>
			<point x="346" y="18"/>
			<point x="380" y="46"/>
			<point x="403" y="65" type="curve"/>
			<point x="403" y="70" type="line"/>
			<point x="362" y="87"/>
			<point x="349" y="103"/>
			<point x="349" y="125" type="curve" smooth="yes"/>
			<point x="348" y="204"/>
			<point x="348" y="284"/>
			<point x="351" y="363" type="curve" smooth="yes"/>
			<point x="353" y="413"/>
			<point x="324" y="460"/>
			<point x="246" y="460" type="curve" smooth="yes"/>
			<point x="186" y="460"/>
			<point x="83" y="404"/>
			<point x="41" y="378" type="curve"/>
			<point x="54" y="362" type="line"/>
			<point x="100" y="382"/>
			<point x="133" y="390"/>
			<point x="163" y="390" type="curve" smooth="yes"/>
			<point x="220" y="390"/>
			<point x="261" y="358"/>
			<point x="253" y="284" type="curve"/>
			<point x="206" y="260"/>
			<point x="159" y="236"/>
			<point x="112" y="213" type="curve" smooth="yes"/>
			<point x="77" y="193"/>
			<point x="20" y="163"/>
			<point x="20" y="98" type="curve" smooth="yes"/>
			<point x="20" y="45"/>
			<point x="51" y="15"/>
		</contour>
		<contour>
			<point x="168" y="74" type="curve" smooth="yes"/>
			<point x="138" y="74"/>
			<point x="110" y="100"/>
			<point x="110" y="130" type="curve" smooth="yes"/>
			<point x="110" y="164"/>
			<point x="132" y="194"/>
			<point x="164" y="214" type="curve" smooth="yes"/>
			<point x="192" y="232"/>
			<point x="225" y="244"/>
			<point x="253" y="252" type="curve"/>
			<point x="254" y="116" type="line"/>
			<point x="235" y="95"/>
			<point x="196" y="74"/>
		</contour>
		<contour>
			<point x="279" y="499" type="line"/>
			<point x="332" y="499" type="line"/>
			<point x="335" y="504" type="line"/>
			<point x="156" y="670" type="line"/>
			<point x="92" y="641" type="line"/>
			<point x="92" y="636" type="line"/>
		</contour>
	</outline>
</glyph>
<glyph name="ccedilla" format="2">
	<advance width="343"/>
	<unicode hex="00E7"/>
	<outline>
		<contour>
			<point x="191" y="-151" type="line"/>
			<point x="354" y="-97"/>
			<point x="359" y="30"/>
			<point x="312" y="88" type="curve"/>
			<point x="286" y="75"/>
			<point x="268" y="61"/>
			<point x="240" y="61" type="curve" smooth="yes"/>
			<point x="109" y="61"/>
			<point x="120" y="231"/>
			<point x="140" y="373" type="curve"/>
			<point x="165" y="360"/>
			<point x="204" y="343"/>
			<point x="235" y="317" type="curve"/>
			<point x="324" y="388" type="line"/>
			<point x="324" y="394" type="line"/>
			<point x="285" y="415"/>
			<point x="245" y="435"/>
			<point x="205" y="460" type="curve"/>
			<point x="147" y="438"/>
			<point x="94" y="394"/>
			<point x="63" y="367" type="curve"/>
			<point x="48" y="325"/>
			<point x="38" y="236"/>
			<point x="40" y="164" type="curve" smooth="yes"/>
			<point x="43" y="34"/>
			<point x="98" y="10"/>
			<point x="188" y="-10" type="curve"/>
			<point x="227" y="14" type="line"/>
			<point x="271" y="-16"/>
			<point x="264" y="-101"/>
			<point x="179" y="-125" type="curve"/>
		</contour>
	</outline>
</glyph>
<glyph name="eacute" format="2">
	<advance width="347"/>
	<unicode hex="00E9"/>
	<outline>
		<contour>
			<point x="219" y="-10" type="curve"/>
			<point x="327" y="78" type="line"/>
			<point x="326" y="105" type="line"/>
			<point x="295" y="101"/>
			<point x="269" y="100"/>
			<point x="239" y="100" type="curve" smooth="yes"/>
			<point x="190" y="100"/>
			<point x="158" y="118"/>
			<point x="140" y="154" type="curve"/>
			<point x="342" y="326" type="line"/>
			<point x="324" y="407"/>
			<point x="247" y="453"/>
			<point x="208" y="460" type="curve"/>
			<point x="53" y="346" type="line"/>
			<point x="39" y="307"/>
			<point x="25" y="251"/>
			<point x="25" y="197" type="curve" smooth="yes"/>
			<point x="25" y="87"/>
			<point x="89" y="-10"/>
		</contour>
		<contour>
			<point x="129" y="182" type="curve"/>
			<point x="124" y="203"/>
			<point x="121" y="228"/>
			<point x="121" y="257" type="curve" smooth="yes"/>
			<point x="121" y="310"/>
			<point x="130" y="356"/>
			<point x="160" y="385" type="curve"/>
			<point x="177" y="385"/>
			<point x="239" y="323"/>
			<point x="239" y="284" type="curve"/>
			<point x="223" y="266"/>
			<point x="174" y="220"/>
		</contour>
		<contour>
			<point x="98" y="449" type="line"/>
			<point x="287" y="611" type="line"/>
			<point x="284" y="621" type="line"/>
			<point x="185" y="599" type="line"/>
			<point x="87" y="464" type="line"/>
		</contour>
	</outline>
</glyph>
<glyph name="ugrave" format="2">
	<advance width="465"/>
	<unicode hex="00F9"/>
	<outline>
		<contour>
			<point x="162" y="-10" type="curve"/>
			<point x="280" y="77" type="line"/>
			<point x="287" y="51"/>
			<point x="311" y="20"/>
			<point x="362" y="-10" type="curve"/>
			<point x="450" y="56" type="line"/>
			<point x="450" y="71" type="line"/>
			<point x="397" y="87"/>
			<point x="378" y="99"/>
			<point x="378" y="141" type="curve" smooth="yes"/>
			<point x="378" y="457" type="line"/>
			<point x="375" y="460" type="line"/>
			<point x="283" y="404" type="line"/>
			<point x="283" y="311"/>
			<point x="282" y="218"/>
			<point x="278" y="123" type="curve"/>
			<point x="255" y="102"/>
			<point x="230" y="90"/>
			<point x="213" y="90" type="curve" smooth="yes"/>
			<point x="157" y="90"/>
			<point x="136" y="148"/>
			<point x="136" y="218" type="curve" smooth="yes"/>
			<point x="136" y="344"/>
			<point x="138" y="409"/>
			<point x="150" y="457" type="curve"/>
			<point x="147" y="460" type="line"/>
			<point x="50" y="404" type="line"/>
			<point x="53" y="343"/>
			<point x="51" y="203"/>
			<point x="51" y="130" type="curve" smooth="yes"/>
			<point x="51" y="50"/>
			<point x="102" y="10"/>
		</contour>
		<contour>
			<point x="324" y="549" type="line"/>
			<point x="367" y="549" type="line"/>
			<point x="371" y="555" type="line"/>
			<point x="191" y="691" type="line"/>
			<point x="108" y="674" type="line"/>
			<point x="107" y="668" type="line"/>
		</contour>
	</outline>
</glyph>
<glyph name="quotesinglbase" format="2">
	<advance width="217"/>
	<unicode hex="201A"/>
	<outline>
		<contour>
			<point x="20" y="-115" type="line"/>
			<point x="35" y="-133" type="line"/>
			<point x="197" y="29" type="line"/>
			<point x="197" y="32" type="line"/>
			<point x="114" y="116" type="line"/>
			<point x="112" y="116" type="line"/>
			<point x="43" y="46" type="line"/>
			<point x="43" y="44" type="line"/>
			<point x="98" y="-10" type="line"/>
		</contour>
	</outline>
</glyph>
<glyph name="c_h" format="2">
	<advance width="721"/>
	<outline>
		<contour>
			<point x="471" y="-92" type="line"/>
			<point x="484" y="-93"/>
			<point x="543" y="-79"/>
			<point x="563" y="-69" type="curve" smooth="yes"/>
			<point x="631" y="-35"/>
			<point x="696" y="73"/>
			<point x="696" y="173" type="curve" smooth="yes"/>
			<point x="696" y="273"/>
			<point x="647" y="384"/>
			<point x="503" y="420" type="curve"/>
			<point x="478" y="380"/>
			<point x="436" y="340"/>
			<point x="407" y="310" type="curve"/>
			<point x="407" y="416"/>
			<point x="407" y="592"/>
			<point x="417" y="708" type="curve"/>
			<point x="409" y="710" type="line"/>
			<point x="370" y="693"/>
			<point x="338" y="686"/>
			<point x="319" y="686" type="curve" smooth="yes"/>
			<point x="249" y="686"/>
			<point x="205" y="691"/>
			<point x="163" y="688" type="curve"/>
			<point x="109" y="603" type="line"/>
			<point x="120" y="592" type="line"/>
			<point x="156" y="607"/>
			<point x="254" y="603"/>
			<point x="300" y="596" type="curve"/>
			<point x="303" y="534"/>
			<point x="305" y="447"/>
			<point x="306" y="353" type="curve"/>
			<point x="271" y="364"/>
			<point x="235" y="382"/>
			<point x="200" y="406" type="curve"/>
			<point x="64" y="306" type="line"/>
			<point x="46" y="272"/>
			<point x="40" y="236"/>
			<point x="40" y="171" type="curve" smooth="yes"/>
			<point x="40" y="41"/>
			<point x="116" y="-10"/>
			<point x="196" y="-10" type="curve"/>
			<point x="220" y="9"/>
			<point x="259" y="45"/>
			<point x="308" y="79" type="curve"/>
			<point x="308" y="50" type="line" smooth="yes"/>
			<point x="308" y="40"/>
			<point x="303" y="17"/>
			<point x="297" y="0" type="curve"/>
			<point x="417" y="0" type="line"/>
			<point x="411" y="15"/>
			<point x="407" y="40"/>
			<point x="407" y="50" type="curve" smooth="yes"/>
			<point x="407" y="272" type="line"/>
			<point x="421" y="283"/>
			<point x="440" y="292"/>
			<point x="473" y="292" type="curve" smooth="yes"/>
			<point x="533" y="292"/>
			<point x="626" y="220"/>
			<point x="626" y="110" type="curve" smooth="yes"/>
			<point x="626" y="54"/>
			<point x="614" y="18"/>
			<point x="592" y="-8" type="curve"/>
			<point x="569" y="-7"/>
			<point x="545" y="-5"/>
			<point x="522" y="0" type="curve"/>
			<point x="471" y="-84" type="line"/>
		</contour>
		<contour>
			<point x="215" y="69" type="curve" smooth="yes"/>
			<point x="144" y="69"/>
			<point x="129" y="135"/>
			<point x="129" y="215" type="curve" smooth="yes"/>
			<point x="129" y="258"/>
			<point x="137" y="300"/>
			<point x="154" y="329" type="curve"/>
			<point x="238" y="270" type="line"/>
			<point x="307" y="323" type="line"/>
			<point x="307" y="256"/>
			<point x="308" y="186"/>
			<point x="308" y="119" type="curve"/>
			<point x="278" y="89"/>
			<point x="248" y="69"/>
		</contour>
	</outline>
</glyph>
<glyph name="c_k" format="2">
	<advance width="617"/>
	<outline>
		<contour>
			<point x="543" y="-18" type="curve"/>
			<point x="622" y="52" type="line"/>
			<point x="622" y="57" type="line"/>
			<point x="573" y="88"/>
			<point x="533" y="146"/>
			<point x="467" y="235" type="curve"/>
			<point x="486" y="255"/>
			<point x="526" y="282"/>
			<point x="556" y="316" type="curve"/>
			<point x="555" y="354"/>
			<point x="517" y="400"/>
			<point x="479" y="430" type="curve"/>
			<point x="450" y="412"/>
			<point x="415" y="376"/>
			<point x="382" y="348" type="curve"/>
			<point x="382" y="461"/>
			<point x="383" y="604"/>
			<point x="392" y="708" type="curve"/>
			<point x="384" y="710" type="line"/>
			<point x="328" y="685"/>
			<point x="283" y="688"/>
			<point x="178" y="688" type="curve"/>
			<point x="104" y="603" type="line"/>
			<point x="115" y="592" type="line"/>
			<point x="153" y="607"/>
			<point x="234" y="629"/>
			<point x="275" y="615" type="curve"/>
			<point x="278" y="556"/>
			<point x="280" y="449"/>
			<point x="281" y="360" type="curve"/>
			<point x="197" y="416" type="line"/>
			<point x="55" y="294" type="line"/>
			<point x="45" y="253"/>
			<point x="40" y="212"/>
			<point x="40" y="165" type="curve" smooth="yes"/>
			<point x="40" y="54"/>
			<point x="100" y="-10"/>
			<point x="144" y="-10" type="curve"/>
			<point x="283" y="96" type="line"/>
			<point x="283" y="45"/>
			<point x="285" y="33"/>
			<point x="275" y="5" type="curve"/>
			<point x="275" y="0" type="line"/>
			<point x="392" y="0" type="line"/>
			<point x="392" y="5" type="line"/>
			<point x="383" y="40"/>
			<point x="382" y="115"/>
			<point x="382" y="166" type="curve"/>
			<point x="396" y="176" type="line"/>
			<point x="442" y="142"/>
			<point x="497" y="26"/>
		</contour>
		<contour>
			<point x="194" y="100" type="curve" smooth="yes"/>
			<point x="151" y="100"/>
			<point x="131" y="139"/>
			<point x="131" y="221" type="curve" smooth="yes"/>
			<point x="131" y="285"/>
			<point x="140" y="306"/>
			<point x="156" y="335" type="curve"/>
			<point x="242" y="289" type="line"/>
			<point x="282" y="336" type="line"/>
			<point x="283" y="131" type="line"/>
			<point x="261" y="115"/>
			<point x="230" y="100"/>
		</contour>
		<contour>
			<point x="382" y="200" type="curve"/>
			<point x="382" y="324" type="line"/>
			<point x="398" y="345"/>
			<point x="461" y="358"/>
			<point x="461" y="302" type="curve" smooth="yes"/>
			<point x="461" y="263"/>
			<point x="430" y="236"/>
		</contour>
	</outline>
</glyph>
<glyph name="cranach_1" format="2">
	<advance width="688"/>
	<outline>
		<contour>
			<point x="339" y="11" type="curve"/>
			<point x="339" y="11" type="line"/>
			<point x="474" y="11"/>
			<point x="638" y="161"/>
			<point x="638" y="353" type="curve"/>
			<point x="638" y="555"/>
			<point x="495" y="691"/>
			<point x="347" y="691" type="curve"/>
			<point x="219" y="691"/>
			<point x="43" y="574"/>
			<point x="50" y="344" type="curve"/>
			<point x="58" y="80"/>
			<point x="243" y="11"/>
		</contour>
		<contour>
			<point x="176" y="131" type="curve"/>
			<point x="176" y="131" type="line"/>
			<point x="170" y="134"/>
			<point x="164" y="136"/>
			<point x="155" y="136" type="curve"/>
			<point x="158" y="144"/>
			<point x="159" y="150"/>
			<point x="158" y="158" type="curve"/>
			<point x="166" y="153"/>
			<point x="170" y="151"/>
			<point x="177" y="151" type="curve"/>
			<point x="175" y="143"/>
			<point x="175" y="138"/>
		</contour>
		<contour>
			<point x="173" y="81" type="curve"/>
			<point x="173" y="81" type="line"/>
			<point x="171" y="78"/>
			<point x="167" y="86"/>
			<point x="169" y="89" type="curve"/>
			<point x="181" y="107"/>
			<point x="196" y="124"/>
			<point x="215" y="144" type="curve"/>
			<point x="224" y="142"/>
			<point x="248" y="125"/>
			<point x="241" y="107" type="curve"/>
			<point x="238" y="99"/>
			<point x="216" y="94"/>
			<point x="203" y="106" type="curve"/>
			<point x="202" y="107"/>
			<point x="206" y="108"/>
			<point x="206" y="109" type="curve"/>
			<point x="210" y="105"/>
			<point x="230" y="99"/>
			<point x="234" y="111" type="curve"/>
			<point x="236" y="117"/>
			<point x="233" y="129"/>
			<point x="217" y="135" type="curve"/>
			<point x="202" y="116"/>
			<point x="187" y="102"/>
		</contour>
		<contour>
			<point x="107" y="158" type="curve"/>
			<point x="107" y="158" type="line"/>
			<point x="105" y="156"/>
			<point x="103" y="164"/>
			<point x="105" y="166" type="curve"/>
			<point x="114" y="175"/>
			<point x="127" y="178"/>
			<point x="135" y="186" type="curve"/>
			<point x="136" y="187"/>
			<point x="119" y="209"/>
			<point x="116" y="214" type="curve"/>
			<point x="114" y="217"/>
			<point x="94" y="204"/>
			<point x="86" y="199" type="curve"/>
			<point x="83" y="197"/>
			<point x="81" y="200"/>
			<point x="81" y="204" type="curve"/>
			<point x="81" y="207"/>
			<point x="127" y="232"/>
			<point x="149" y="243" type="curve"/>
			<point x="151" y="244"/>
			<point x="155" y="236"/>
			<point x="153" y="235" type="curve"/>
			<point x="144" y="230"/>
			<point x="125" y="223"/>
			<point x="125" y="219" type="curve"/>
			<point x="125" y="217"/>
			<point x="139" y="190"/>
			<point x="142" y="191" type="curve"/>
			<point x="150" y="194"/>
			<point x="157" y="201"/>
			<point x="166" y="204" type="curve"/>
			<point x="169" y="205"/>
			<point x="176" y="198"/>
			<point x="173" y="196" type="curve"/>
			<point x="151" y="181"/>
			<point x="127" y="171"/>
		</contour>
		<contour>
			<point x="307" y="23" type="curve"/>
			<point x="307" y="23" type="line"/>
			<point x="293" y="23"/>
			<point x="283" y="32"/>
			<point x="278" y="42" type="curve"/>
			<point x="271" y="55"/>
			<point x="267" y="68"/>
			<point x="264" y="77" type="curve"/>
			<point x="263" y="80"/>
			<point x="285" y="76"/>
			<point x="285" y="89" type="curve"/>
			<point x="285" y="95"/>
			<point x="275" y="102"/>
			<point x="266" y="103" type="curve"/>
			<point x="260" y="80"/>
			<point x="251" y="65"/>
			<point x="241" y="42" type="curve"/>
			<point x="240" y="39"/>
			<point x="232" y="48"/>
			<point x="233" y="51" type="curve"/>
			<point x="243" y="72"/>
			<point x="251" y="87"/>
			<point x="261" y="112" type="curve"/>
			<point x="270" y="112"/>
			<point x="291" y="100"/>
			<point x="293" y="85" type="curve"/>
			<point x="294" y="76"/>
			<point x="278" y="72"/>
			<point x="278" y="71" type="curve"/>
			<point x="278" y="46"/>
			<point x="298" y="36"/>
			<point x="308" y="26" type="curve"/>
			<point x="309" y="25"/>
			<point x="309" y="23"/>
		</contour>
		<contour>
			<point x="89" y="232" type="curve"/>
			<point x="87" y="228" type="line"/>
			<point x="73" y="238"/>
			<point x="70" y="239"/>
			<point x="68" y="253" type="curve"/>
			<point x="67" y="262"/>
			<point x="70" y="274"/>
			<point x="76" y="281" type="curve"/>
			<point x="86" y="292"/>
			<point x="94" y="298"/>
			<point x="106" y="297" type="curve"/>
			<point x="125" y="295"/>
			<point x="133" y="287"/>
			<point x="138" y="281" type="curve"/>
			<point x="144" y="274"/>
			<point x="143" y="269"/>
			<point x="143" y="249" type="curve"/>
			<point x="133" y="247" type="line"/>
			<point x="134" y="261"/>
			<point x="138" y="258"/>
			<point x="131" y="277" type="curve"/>
			<point x="128" y="285"/>
			<point x="114" y="286"/>
			<point x="106" y="286" type="curve"/>
			<point x="101" y="286"/>
			<point x="86" y="283"/>
			<point x="81" y="275" type="curve"/>
			<point x="76" y="267"/>
			<point x="74" y="258"/>
			<point x="75" y="250" type="curve"/>
			<point x="76" y="239"/>
			<point x="79" y="240"/>
		</contour>
		<contour>
			<point x="329" y="29" type="curve"/>
			<point x="329" y="29" type="line"/>
			<point x="327" y="29"/>
			<point x="325" y="94"/>
			<point x="326" y="94" type="curve"/>
			<point x="329" y="94"/>
			<point x="356" y="98"/>
			<point x="369" y="98" type="curve"/>
			<point x="371" y="98"/>
			<point x="370" y="90"/>
			<point x="368" y="90" type="curve"/>
			<point x="359" y="90"/>
			<point x="340" y="88"/>
			<point x="337" y="87" type="curve"/>
			<point x="335" y="86"/>
			<point x="335" y="65"/>
			<point x="337" y="65" type="curve"/>
			<point x="348" y="65"/>
			<point x="361" y="70"/>
			<point x="372" y="70" type="curve"/>
			<point x="375" y="70"/>
			<point x="375" y="63"/>
			<point x="372" y="62" type="curve"/>
			<point x="362" y="59"/>
			<point x="338" y="60"/>
			<point x="338" y="56" type="curve"/>
			<point x="338" y="51"/>
			<point x="340" y="37"/>
			<point x="341" y="37" type="curve"/>
			<point x="352" y="37"/>
			<point x="365" y="39"/>
			<point x="378" y="43" type="curve"/>
			<point x="381" y="44"/>
			<point x="381" y="34"/>
			<point x="378" y="34" type="curve"/>
			<point x="363" y="34"/>
			<point x="340" y="29"/>
		</contour>
		<contour>
			<point x="219" y="162" type="curve"/>
			<point x="219" y="162" type="line"/>
			<point x="221" y="161"/>
			<point x="235" y="172"/>
			<point x="237" y="174" type="curve"/>
			<point x="240" y="177"/>
			<point x="258" y="205"/>
			<point x="255" y="208" type="curve"/>
			<point x="254" y="209"/>
			<point x="246" y="202"/>
			<point x="245" y="201" type="curve"/>
			<point x="239" y="195"/>
			<point x="223" y="189"/>
			<point x="219" y="186" type="curve"/>
			<point x="215" y="183"/>
			<point x="208" y="176"/>
			<point x="207" y="174" type="curve"/>
			<point x="206" y="171"/>
			<point x="215" y="164"/>
		</contour>
		<contour>
			<point x="269" y="125" type="curve"/>
			<point x="269" y="125" type="line"/>
			<point x="269" y="125"/>
			<point x="286" y="131"/>
			<point x="289" y="136" type="curve"/>
			<point x="293" y="143"/>
			<point x="296" y="152"/>
			<point x="296" y="164" type="curve"/>
			<point x="296" y="170"/>
			<point x="296" y="184"/>
			<point x="293" y="184" type="curve"/>
			<point x="284" y="184"/>
			<point x="247" y="150"/>
			<point x="231" y="150" type="curve"/>
			<point x="229" y="150"/>
			<point x="241" y="141"/>
			<point x="243" y="139" type="curve"/>
			<point x="247" y="135"/>
			<point x="267" y="125"/>
		</contour>
		<contour>
			<point x="162" y="257" type="curve"/>
			<point x="162" y="257" type="line"/>
			<point x="162" y="257"/>
			<point x="164" y="259"/>
			<point x="166" y="263" type="curve"/>
			<point x="164" y="263"/>
			<point x="162" y="262"/>
		</contour>
		<contour>
			<point x="62" y="296" type="curve"/>
			<point x="62" y="296" type="line"/>
			<point x="61" y="295"/>
			<point x="61" y="306"/>
			<point x="63" y="308" type="curve"/>
			<point x="68" y="313"/>
			<point x="84" y="316"/>
			<point x="84" y="317" type="curve"/>
			<point x="84" y="344" type="line" smooth="yes"/>
			<point x="84" y="346"/>
			<point x="59" y="351"/>
			<point x="59" y="353" type="curve"/>
			<point x="59" y="356"/>
			<point x="57" y="360"/>
			<point x="61" y="361" type="curve"/>
			<point x="61" y="361"/>
			<point x="115" y="346"/>
			<point x="136" y="339" type="curve"/>
			<point x="139" y="338"/>
			<point x="138" y="335"/>
			<point x="137" y="335" type="curve"/>
			<point x="109" y="322"/>
			<point x="85" y="307"/>
		</contour>
		<contour>
			<point x="287" y="143" type="move"/>
		</contour>
		<contour>
			<point x="203" y="180" type="curve"/>
			<point x="203" y="180" type="line"/>
			<point x="208" y="185"/>
			<point x="221" y="196"/>
			<point x="236" y="205" type="curve"/>
			<point x="244" y="210"/>
			<point x="256" y="213"/>
			<point x="258" y="216" type="curve"/>
			<point x="260" y="219"/>
			<point x="259" y="236"/>
			<point x="257" y="239" type="curve"/>
			<point x="253" y="245"/>
			<point x="240" y="262"/>
			<point x="240" y="262" type="curve"/>
			<point x="233" y="264"/>
			<point x="171" y="226"/>
			<point x="176" y="217" type="curve"/>
			<point x="180" y="210"/>
			<point x="200" y="177"/>
		</contour>
		<contour>
			<point x="90" y="321" type="curve"/>
			<point x="90" y="321" type="line"/>
			<point x="90" y="319"/>
			<point x="115" y="329"/>
			<point x="120" y="334" type="curve"/>
			<point x="121" y="335"/>
			<point x="91" y="345"/>
			<point x="90" y="345" type="curve"/>
			<point x="89" y="345"/>
			<point x="90" y="323"/>
		</contour>
		<contour>
			<point x="225" y="156" type="curve"/>
			<point x="225" y="156" type="line"/>
			<point x="226" y="155"/>
			<point x="232" y="156"/>
			<point x="235" y="156" type="curve"/>
			<point x="257" y="156"/>
			<point x="254" y="169"/>
			<point x="266" y="176" type="curve"/>
			<point x="271" y="179"/>
			<point x="287" y="187"/>
			<point x="290" y="194" type="curve"/>
			<point x="293" y="202"/>
			<point x="283" y="208"/>
			<point x="277" y="214" type="curve"/>
			<point x="273" y="218"/>
			<point x="264" y="236"/>
			<point x="264" y="230" type="curve"/>
			<point x="264" y="213"/>
			<point x="259" y="195"/>
			<point x="250" y="179" type="curve"/>
			<point x="244" y="168"/>
			<point x="230" y="159"/>
			<point x="225" y="159" type="curve"/>
			<point x="224" y="159"/>
			<point x="224" y="157"/>
		</contour>
		<contour>
			<point x="413" y="45" type="curve"/>
			<point x="413" y="45" type="line"/>
			<point x="409" y="45"/>
			<point x="407" y="55"/>
			<point x="409" y="55" type="curve"/>
			<point x="414" y="55"/>
			<point x="418" y="56"/>
			<point x="424" y="58" type="curve"/>
			<point x="429" y="60"/>
			<point x="433" y="68"/>
			<point x="430" y="73" type="curve"/>
			<point x="425" y="81"/>
			<point x="421" y="79"/>
			<point x="414" y="80" type="curve"/>
			<point x="407" y="81"/>
			<point x="397" y="87"/>
			<point x="396" y="92" type="curve"/>
			<point x="393" y="106"/>
			<point x="408" y="114"/>
			<point x="417" y="114" type="curve"/>
			<point x="420" y="114"/>
			<point x="425" y="108"/>
			<point x="421" y="108" type="curve"/>
			<point x="411" y="108"/>
			<point x="399" y="99"/>
			<point x="404" y="92" type="curve"/>
			<point x="409" y="85"/>
			<point x="423" y="87"/>
			<point x="431" y="83" type="curve"/>
			<point x="435" y="81"/>
			<point x="443" y="74"/>
			<point x="439" y="64" type="curve"/>
			<point x="435" y="54"/>
			<point x="417" y="45"/>
		</contour>
		<contour>
			<point x="131" y="370" type="curve"/>
			<point x="131" y="370" type="line"/>
			<point x="125" y="370"/>
			<point x="69" y="373"/>
			<point x="60" y="373" type="curve"/>
			<point x="59" y="373"/>
			<point x="59" y="379"/>
			<point x="61" y="380" type="curve"/>
			<point x="84" y="392"/>
			<point x="128" y="426"/>
			<point x="122" y="427" type="curve"/>
			<point x="68" y="434" type="line" smooth="yes"/>
			<point x="66" y="434"/>
			<point x="67" y="442"/>
			<point x="69" y="442" type="curve"/>
			<point x="76" y="442"/>
			<point x="120" y="432"/>
			<point x="144" y="432" type="curve"/>
			<point x="145" y="432"/>
			<point x="146" y="430"/>
			<point x="144" y="428" type="curve"/>
			<point x="129" y="413"/>
			<point x="104" y="398"/>
			<point x="84" y="382" type="curve"/>
			<point x="100" y="380"/>
			<point x="129" y="384"/>
			<point x="133" y="380" type="curve"/>
			<point x="134" y="379"/>
			<point x="132" y="370"/>
		</contour>
		<contour>
			<point x="323" y="112" type="curve"/>
			<point x="323" y="112" type="line"/>
			<point x="330" y="112"/>
			<point x="353" y="111"/>
			<point x="366" y="114" type="curve"/>
			<point x="383" y="118"/>
			<point x="408" y="127"/>
			<point x="418" y="135" type="curve"/>
			<point x="426" y="142"/>
			<point x="434" y="147"/>
			<point x="443" y="154" type="curve"/>
			<point x="447" y="157"/>
			<point x="453" y="160"/>
			<point x="452" y="162" type="curve"/>
			<point x="451" y="164"/>
			<point x="447" y="168"/>
			<point x="444" y="168" type="curve"/>
			<point x="443" y="168"/>
			<point x="413" y="148"/>
			<point x="408" y="146" type="curve"/>
			<point x="395" y="141"/>
			<point x="382" y="135"/>
			<point x="368" y="132" type="curve"/>
			<point x="349" y="128"/>
			<point x="316" y="130"/>
			<point x="311" y="128" type="curve"/>
			<point x="308" y="127"/>
			<point x="296" y="117"/>
			<point x="294" y="116" type="curve"/>
			<point x="292" y="115"/>
			<point x="321" y="112"/>
		</contour>
		<contour>
			<point x="203" y="257" type="curve"/>
			<point x="203" y="257" type="line"/>
			<point x="204" y="257"/>
			<point x="216" y="278"/>
			<point x="214" y="290" type="curve"/>
			<point x="211" y="310"/>
			<point x="203" y="335"/>
			<point x="203" y="355" type="curve"/>
			<point x="203" y="367"/>
			<point x="220" y="389"/>
			<point x="215" y="385" type="curve"/>
			<point x="204" y="376"/>
			<point x="199" y="360"/>
			<point x="199" y="344" type="curve"/>
			<point x="199" y="334"/>
			<point x="200" y="321"/>
			<point x="201" y="311" type="curve"/>
			<point x="202" y="302"/>
			<point x="207" y="293"/>
			<point x="206" y="281" type="curve"/>
			<point x="205" y="273"/>
			<point x="202" y="257"/>
		</contour>
		<contour>
			<point x="319" y="136" type="curve"/>
			<point x="319" y="136" type="line"/>
			<point x="336" y="136"/>
			<point x="392" y="143"/>
			<point x="407" y="151" type="curve"/>
			<point x="413" y="154"/>
			<point x="439" y="170"/>
			<point x="437" y="172" type="curve"/>
			<point x="436" y="173"/>
			<point x="416" y="189"/>
			<point x="409" y="186" type="curve"/>
			<point x="398" y="181"/>
			<point x="398" y="177"/>
			<point x="383" y="171" type="curve"/>
			<point x="378" y="169"/>
			<point x="366" y="170"/>
			<point x="363" y="174" type="curve"/>
			<point x="355" y="147"/>
			<point x="342" y="152"/>
			<point x="333" y="148" type="curve"/>
			<point x="328" y="146"/>
			<point x="318" y="136"/>
		</contour>
		<contour>
			<point x="484" y="74" type="curve"/>
			<point x="484" y="74" type="line"/>
			<point x="481" y="73"/>
			<point x="471" y="80"/>
			<point x="474" y="81" type="curve"/>
			<point x="478" y="82"/>
			<point x="484" y="85"/>
			<point x="489" y="90" type="curve"/>
			<point x="493" y="94"/>
			<point x="495" y="108"/>
			<point x="490" y="111" type="curve"/>
			<point x="482" y="116"/>
			<point x="477" y="115"/>
			<point x="470" y="112" type="curve"/>
			<point x="463" y="109"/>
			<point x="451" y="114"/>
			<point x="449" y="118" type="curve"/>
			<point x="443" y="131"/>
			<point x="452" y="143"/>
			<point x="461" y="146" type="curve"/>
			<point x="464" y="147"/>
			<point x="470" y="143"/>
			<point x="467" y="142" type="curve"/>
			<point x="457" y="139"/>
			<point x="450" y="125"/>
			<point x="456" y="121" type="curve"/>
			<point x="464" y="116"/>
			<point x="481" y="123"/>
			<point x="489" y="121" type="curve"/>
			<point x="493" y="120"/>
			<point x="501" y="112"/>
			<point x="501" y="100" type="curve"/>
			<point x="501" y="89"/>
			<point x="488" y="75"/>
		</contour>
		<contour>
			<point x="174" y="234" type="curve"/>
			<point x="174" y="234" type="line"/>
			<point x="178" y="232"/>
			<point x="199" y="249"/>
			<point x="200" y="268" type="curve"/>
			<point x="201" y="289"/>
			<point x="193" y="337"/>
			<point x="194" y="350" type="curve"/>
			<point x="195" y="359"/>
			<point x="197" y="366"/>
			<point x="199" y="373" type="curve"/>
			<point x="201" y="379"/>
			<point x="230" y="418"/>
			<point x="230" y="420" type="curve"/>
			<point x="230" y="421"/>
			<point x="224" y="414"/>
			<point x="223" y="413" type="curve"/>
			<point x="219" y="409"/>
			<point x="210" y="399"/>
			<point x="209" y="400" type="curve"/>
			<point x="209" y="400"/>
			<point x="207" y="401"/>
			<point x="207" y="402" type="curve"/>
			<point x="207" y="405"/>
			<point x="225" y="424"/>
			<point x="228" y="431" type="curve"/>
			<point x="230" y="436"/>
			<point x="233" y="450"/>
			<point x="233" y="454" type="curve"/>
			<point x="233" y="467"/>
			<point x="226" y="473"/>
			<point x="226" y="481" type="curve"/>
			<point x="226" y="487"/>
			<point x="230" y="498"/>
			<point x="235" y="507" type="curve"/>
			<point x="242" y="519"/>
			<point x="267" y="542"/>
			<point x="265" y="543" type="curve"/>
			<point x="262" y="544"/>
			<point x="243" y="533"/>
			<point x="234" y="521" type="curve"/>
			<point x="225" y="509"/>
			<point x="221" y="495"/>
			<point x="220" y="495" type="curve"/>
			<point x="219" y="495"/>
			<point x="221" y="508"/>
			<point x="224" y="511" type="curve"/>
			<point x="225" y="512"/>
			<point x="224" y="514"/>
			<point x="223" y="514" type="curve"/>
			<point x="215" y="514"/>
			<point x="212" y="496"/>
			<point x="210" y="480" type="curve"/>
			<point x="208" y="465"/>
			<point x="209" y="448"/>
			<point x="211" y="438" type="curve"/>
			<point x="212" y="433"/>
			<point x="205" y="423"/>
			<point x="207" y="423" type="curve"/>
			<point x="211" y="423"/>
			<point x="221" y="433"/>
			<point x="221" y="446" type="curve"/>
			<point x="221" y="452"/>
			<point x="220" y="463"/>
			<point x="219" y="467" type="curve"/>
			<point x="218" y="471"/>
			<point x="218" y="483"/>
			<point x="220" y="483" type="curve"/>
			<point x="223" y="483"/>
			<point x="227" y="457"/>
			<point x="227" y="444" type="curve"/>
			<point x="227" y="438"/>
			<point x="205" y="412"/>
			<point x="201" y="408" type="curve"/>
			<point x="190" y="397"/>
			<point x="180" y="393"/>
			<point x="176" y="383" type="curve"/>
			<point x="174" y="378"/>
			<point x="172" y="361"/>
			<point x="172" y="356" type="curve"/>
			<point x="172" y="339"/>
			<point x="178" y="319"/>
			<point x="179" y="303" type="curve"/>
			<point x="179" y="303"/>
			<point x="177" y="291"/>
			<point x="173" y="279" type="curve"/>
			<point x="171" y="273"/>
			<point x="168" y="267"/>
			<point x="166" y="263" type="curve"/>
			<point x="168" y="263"/>
			<point x="171" y="263"/>
			<point x="173" y="266" type="curve"/>
			<point x="173" y="266"/>
			<point x="177" y="272"/>
			<point x="177" y="271" type="curve"/>
			<point x="177" y="261"/>
			<point x="166" y="249"/>
			<point x="167" y="245" type="curve"/>
			<point x="169" y="238"/>
			<point x="186" y="273"/>
			<point x="186" y="286" type="curve"/>
			<point x="186" y="304"/>
			<point x="184" y="351"/>
			<point x="183" y="356" type="curve"/>
			<point x="182" y="361"/>
			<point x="190" y="393"/>
			<point x="201" y="393" type="curve"/>
			<point x="202" y="393"/>
			<point x="198" y="388"/>
			<point x="198" y="388" type="curve"/>
			<point x="193" y="382"/>
			<point x="188" y="362"/>
			<point x="188" y="354" type="curve"/>
			<point x="188" y="341"/>
			<point x="194" y="306"/>
			<point x="194" y="286" type="curve"/>
			<point x="194" y="269"/>
			<point x="190" y="254"/>
			<point x="188" y="252" type="curve"/>
			<point x="185" y="249"/>
			<point x="172" y="235"/>
		</contour>
		<contour>
			<point x="113" y="470" type="curve"/>
			<point x="113" y="470" type="line"/>
			<point x="113" y="468"/>
			<point x="128" y="470"/>
			<point x="142" y="470" type="curve"/>
			<point x="145" y="470"/>
			<point x="123" y="490"/>
			<point x="120" y="490" type="curve"/>
			<point x="116" y="490"/>
			<point x="113" y="472"/>
		</contour>
		<contour>
			<point x="76" y="459" type="curve"/>
			<point x="76" y="459" type="line"/>
			<point x="74" y="459"/>
			<point x="77" y="466"/>
			<point x="79" y="466" type="curve"/>
			<point x="87" y="466"/>
			<point x="104" y="467"/>
			<point x="104" y="468" type="curve"/>
			<point x="114" y="493" type="line" smooth="yes"/>
			<point x="115" y="495"/>
			<point x="98" y="510"/>
			<point x="98" y="510" type="curve"/>
			<point x="96" y="509"/>
			<point x="94" y="509"/>
			<point x="93" y="508" type="curve"/>
			<point x="92" y="507"/>
			<point x="90" y="509"/>
			<point x="91" y="511" type="curve"/>
			<point x="96" y="521"/>
			<point x="101" y="526"/>
			<point x="112" y="529" type="curve"/>
			<point x="126" y="533"/>
			<point x="144" y="533"/>
			<point x="154" y="533" type="curve"/>
			<point x="156" y="533"/>
			<point x="150" y="515"/>
			<point x="161" y="511" type="curve"/>
			<point x="166" y="509"/>
			<point x="180" y="511"/>
			<point x="183" y="516" type="curve"/>
			<point x="185" y="519"/>
			<point x="188" y="513"/>
			<point x="187" y="512" type="curve"/>
			<point x="173" y="498"/>
			<point x="165" y="499"/>
			<point x="156" y="502" type="curve"/>
			<point x="148" y="505"/>
			<point x="145" y="523"/>
			<point x="145" y="523" type="curve"/>
			<point x="129" y="527"/>
			<point x="100" y="517"/>
			<point x="103" y="514" type="curve"/>
			<point x="107" y="510"/>
			<point x="147" y="485"/>
			<point x="159" y="467" type="curve"/>
			<point x="161" y="464"/>
			<point x="158" y="462"/>
			<point x="158" y="462" type="curve"/>
			<point x="131" y="461"/>
			<point x="103" y="459"/>
		</contour>
		<contour>
			<point x="151" y="308" type="curve"/>
			<point x="149" y="284" type="line"/>
			<point x="149" y="278"/>
			<point x="160" y="304"/>
			<point x="160" y="323" type="curve"/>
			<point x="160" y="339"/>
			<point x="153" y="348"/>
			<point x="153" y="365" type="curve"/>
			<point x="153" y="402"/>
			<point x="157" y="400"/>
			<point x="161" y="404" type="curve"/>
			<point x="165" y="408"/>
			<point x="182" y="426"/>
			<point x="182" y="440" type="curve"/>
			<point x="182" y="445"/>
			<point x="185" y="440"/>
			<point x="185" y="432" type="curve"/>
			<point x="185" y="431"/>
			<point x="186" y="428"/>
			<point x="188" y="430" type="curve"/>
			<point x="190" y="432"/>
			<point x="193" y="443"/>
			<point x="193" y="445" type="curve"/>
			<point x="193" y="448"/>
			<point x="192" y="453"/>
			<point x="194" y="453" type="curve"/>
			<point x="195" y="453"/>
			<point x="197" y="453"/>
			<point x="197" y="452" type="curve"/>
			<point x="197" y="435"/>
			<point x="165" y="397"/>
			<point x="162" y="389" type="curve"/>
			<point x="161" y="386"/>
			<point x="157" y="372"/>
			<point x="159" y="366" type="curve"/>
			<point x="163" y="354"/>
			<point x="164" y="328"/>
			<point x="164" y="322" type="curve"/>
			<point x="164" y="320"/>
			<point x="167" y="317"/>
			<point x="167" y="318" type="curve"/>
			<point x="167" y="336"/>
			<point x="166" y="374"/>
			<point x="171" y="385" type="curve"/>
			<point x="181" y="407"/>
			<point x="195" y="405"/>
			<point x="203" y="430" type="curve"/>
			<point x="204" y="433"/>
			<point x="206" y="454"/>
			<point x="206" y="457" type="curve"/>
			<point x="206" y="465"/>
			<point x="203" y="474"/>
			<point x="203" y="483" type="curve"/>
			<point x="203" y="496"/>
			<point x="208" y="505"/>
			<point x="217" y="516" type="curve"/>
			<point x="224" y="524"/>
			<point x="230" y="531"/>
			<point x="240" y="538" type="curve"/>
			<point x="250" y="545"/>
			<point x="286" y="559"/>
			<point x="284" y="566" type="curve"/>
			<point x="282" y="572"/>
			<point x="269" y="568"/>
			<point x="256" y="563" type="curve"/>
			<point x="228" y="552"/>
			<point x="204" y="527"/>
			<point x="189" y="501" type="curve"/>
			<point x="178" y="483"/>
			<point x="172" y="466"/>
			<point x="172" y="445" type="curve"/>
			<point x="172" y="439"/>
			<point x="165" y="426"/>
			<point x="159" y="415" type="curve"/>
			<point x="158" y="413"/>
			<point x="150" y="395"/>
			<point x="149" y="389" type="curve"/>
			<point x="146" y="373"/>
			<point x="147" y="349"/>
			<point x="150" y="331" type="curve"/>
			<point x="151" y="325"/>
			<point x="151" y="314"/>
		</contour>
		<contour>
			<point x="458" y="167" type="curve"/>
			<point x="458" y="167" type="line"/>
			<point x="460" y="167"/>
			<point x="488" y="205"/>
			<point x="488" y="207" type="curve"/>
			<point x="488" y="208"/>
			<point x="471" y="229"/>
			<point x="470" y="228" type="curve"/>
			<point x="468" y="226"/>
			<point x="462" y="213"/>
			<point x="458" y="207" type="curve"/>
			<point x="448" y="192"/>
			<point x="428" y="194"/>
			<point x="414" y="194" type="curve"/>
			<point x="413" y="194"/>
			<point x="412" y="192"/>
			<point x="413" y="192" type="curve"/>
			<point x="428" y="192"/>
			<point x="456" y="167"/>
		</contour>
		<contour>
			<point x="225" y="382" type="curve"/>
			<point x="225" y="382" type="line"/>
			<point x="236" y="384"/>
			<point x="260" y="405"/>
			<point x="260" y="421" type="curve"/>
			<point x="260" y="424"/>
			<point x="256" y="444"/>
			<point x="255" y="440" type="curve"/>
			<point x="253" y="431"/>
			<point x="259" y="433"/>
			<point x="246" y="410" type="curve"/>
			<point x="242" y="403"/>
			<point x="216" y="380"/>
		</contour>
		<contour>
			<point x="238" y="380" type="curve"/>
			<point x="238" y="380" type="line"/>
			<point x="239" y="380"/>
			<point x="251" y="383"/>
			<point x="252" y="384" type="curve"/>
			<point x="267" y="399"/>
			<point x="270" y="404"/>
			<point x="270" y="425" type="curve"/>
			<point x="270" y="427"/>
			<point x="270" y="430"/>
			<point x="271" y="431" type="curve"/>
			<point x="272" y="432"/>
			<point x="276" y="419"/>
			<point x="276" y="418" type="curve"/>
			<point x="276" y="415"/>
			<point x="277" y="409"/>
			<point x="274" y="406" type="curve"/>
			<point x="273" y="405"/>
			<point x="269" y="398"/>
			<point x="269" y="398" type="curve"/>
			<point x="274" y="400"/>
			<point x="287" y="410"/>
			<point x="287" y="418" type="curve"/>
			<point x="287" y="420"/>
			<point x="286" y="422"/>
			<point x="285" y="424" type="curve"/>
			<point x="282" y="430"/>
			<point x="269" y="440"/>
			<point x="264" y="440" type="curve"/>
			<point x="262" y="440"/>
			<point x="265" y="410"/>
			<point x="263" y="403" type="curve"/>
			<point x="260" y="393"/>
			<point x="229" y="380"/>
		</contour>
		<contour>
			<point x="237" y="407" type="curve"/>
			<point x="237" y="407" type="line"/>
			<point x="239" y="407"/>
			<point x="251" y="423"/>
			<point x="251" y="438" type="curve"/>
			<point x="251" y="445"/>
			<point x="250" y="451"/>
			<point x="246" y="454" type="curve"/>
			<point x="243" y="456"/>
			<point x="242" y="454"/>
			<point x="242" y="451" type="curve"/>
			<point x="242" y="445"/>
			<point x="244" y="435"/>
			<point x="244" y="430" type="curve"/>
			<point x="244" y="423"/>
			<point x="238" y="417"/>
			<point x="238" y="410" type="curve"/>
			<point x="238" y="409"/>
			<point x="236" y="407"/>
		</contour>
		<contour>
			<point x="184" y="451" type="curve"/>
			<point x="184" y="451" type="line"/>
			<point x="183" y="449"/>
			<point x="182" y="463"/>
			<point x="182" y="463" type="curve"/>
			<point x="182" y="467"/>
			<point x="185" y="477"/>
			<point x="185" y="480" type="curve"/>
			<point x="185" y="495"/>
			<point x="211" y="525"/>
			<point x="206" y="512" type="curve"/>
			<point x="204" y="507"/>
			<point x="199" y="501"/>
			<point x="196" y="494" type="curve"/>
			<point x="194" y="486" type="line"/>
			<point x="194" y="481"/>
			<point x="201" y="493"/>
			<point x="200" y="490" type="curve"/>
			<point x="198" y="485"/>
			<point x="194" y="458"/>
			<point x="193" y="458" type="curve"/>
			<point x="192" y="458"/>
			<point x="193" y="462"/>
			<point x="192" y="464" type="curve"/>
			<point x="192" y="464"/>
			<point x="191" y="468"/>
			<point x="193" y="473" type="curve"/>
			<point x="193" y="473"/>
			<point x="197" y="486"/>
			<point x="193" y="484" type="curve"/>
			<point x="190" y="482"/>
			<point x="186" y="471"/>
			<point x="186" y="466" type="curve"/>
			<point x="186" y="457"/>
			<point x="186" y="454"/>
		</contour>
		<contour>
			<point x="534" y="127" type="curve"/>
			<point x="534" y="127" type="line"/>
			<point x="532" y="125"/>
			<point x="479" y="168"/>
			<point x="479" y="169" type="curve"/>
			<point x="479" y="173"/>
			<point x="493" y="187"/>
			<point x="501" y="200" type="curve"/>
			<point x="502" y="202"/>
			<point x="507" y="197"/>
			<point x="506" y="195" type="curve"/>
			<point x="502" y="187"/>
			<point x="489" y="176"/>
			<point x="489" y="173" type="curve"/>
			<point x="489" y="171"/>
			<point x="505" y="154"/>
			<point x="507" y="157" type="curve"/>
			<point x="514" y="168"/>
			<point x="516" y="173"/>
			<point x="523" y="183" type="curve"/>
			<point x="525" y="185"/>
			<point x="530" y="180"/>
			<point x="529" y="178" type="curve"/>
			<point x="523" y="169"/>
			<point x="514" y="154"/>
			<point x="514" y="151" type="curve"/>
			<point x="514" y="146"/>
			<point x="532" y="136"/>
			<point x="533" y="138" type="curve"/>
			<point x="540" y="148"/>
			<point x="545" y="154"/>
			<point x="553" y="164" type="curve"/>
			<point x="555" y="167"/>
			<point x="562" y="161"/>
			<point x="560" y="159" type="curve"/>
			<point x="548" y="147"/>
			<point x="542" y="135"/>
		</contour>
		<contour>
			<point x="341" y="106" type="curve"/>
			<point x="341" y="106" type="line"/>
			<point x="241" y="107"/>
			<point x="141" y="175"/>
			<point x="141" y="345" type="curve"/>
			<point x="141" y="503"/>
			<point x="248" y="606"/>
			<point x="344" y="603" type="curve"/>
			<point x="433" y="600"/>
			<point x="542" y="523"/>
			<point x="542" y="362" type="curve"/>
			<point x="542" y="238"/>
			<point x="451" y="105"/>
		</contour>
		<contour>
			<point x="278" y="123" type="curve"/>
			<point x="278" y="123" type="line"/>
			<point x="282" y="119"/>
			<point x="287" y="122"/>
			<point x="296" y="124" type="curve"/>
			<point x="300" y="125"/>
			<point x="323" y="152"/>
			<point x="330" y="154" type="curve"/>
			<point x="333" y="155"/>
			<point x="347" y="158"/>
			<point x="351" y="160" type="curve"/>
			<point x="353" y="161"/>
			<point x="356" y="174"/>
			<point x="355" y="175" type="curve"/>
			<point x="352" y="178"/>
			<point x="330" y="185"/>
			<point x="321" y="194" type="curve"/>
			<point x="300" y="215"/>
			<point x="293" y="232"/>
			<point x="276" y="256" type="curve"/>
			<point x="264" y="273"/>
			<point x="245" y="303"/>
			<point x="229" y="314" type="curve"/>
			<point x="216" y="323"/>
			<point x="214" y="346"/>
			<point x="217" y="346" type="curve"/>
			<point x="222" y="346"/>
			<point x="220" y="337"/>
			<point x="224" y="329" type="curve"/>
			<point x="229" y="318"/>
			<point x="242" y="306"/>
			<point x="252" y="297" type="curve"/>
			<point x="265" y="285"/>
			<point x="290" y="244"/>
			<point x="302" y="227" type="curve"/>
			<point x="312" y="213"/>
			<point x="323" y="204"/>
			<point x="347" y="186" type="curve"/>
			<point x="369" y="170"/>
			<point x="387" y="180"/>
			<point x="400" y="190" type="curve"/>
			<point x="411" y="199"/>
			<point x="415" y="216"/>
			<point x="422" y="221" type="curve"/>
			<point x="425" y="223"/>
			<point x="413" y="201"/>
			<point x="417" y="199" type="curve"/>
			<point x="422" y="197"/>
			<point x="437" y="193"/>
			<point x="451" y="209" type="curve"/>
			<point x="457" y="216"/>
			<point x="466" y="235"/>
			<point x="465" y="244" type="curve"/>
			<point x="462" y="268"/>
			<point x="462" y="265"/>
			<point x="462" y="282" type="curve"/>
			<point x="462" y="317"/>
			<point x="479" y="318"/>
			<point x="479" y="354" type="curve"/>
			<point x="479" y="375"/>
			<point x="475" y="406"/>
			<point x="469" y="422" type="curve"/>
			<point x="464" y="435"/>
			<point x="448" y="458"/>
			<point x="443" y="462" type="curve"/>
			<point x="430" y="473"/>
			<point x="406" y="485"/>
			<point x="403" y="497" type="curve"/>
			<point x="402" y="501"/>
			<point x="404" y="532"/>
			<point x="404" y="532" type="curve"/>
			<point x="404" y="545"/>
			<point x="397" y="553"/>
			<point x="387" y="563" type="curve"/>
			<point x="386" y="564"/>
			<point x="391" y="563"/>
			<point x="393" y="563" type="curve"/>
			<point x="397" y="563"/>
			<point x="400" y="559"/>
			<point x="403" y="557" type="curve"/>
			<point x="408" y="553"/>
			<point x="408" y="548"/>
			<point x="409" y="545" type="curve"/>
			<point x="414" y="531"/>
			<point x="409" y="515"/>
			<point x="407" y="506" type="curve"/>
			<point x="405" y="498"/>
			<point x="419" y="484"/>
			<point x="424" y="484" type="curve"/>
			<point x="425" y="484"/>
			<point x="416" y="505"/>
			<point x="419" y="508" type="curve"/>
			<point x="423" y="512"/>
			<point x="422" y="531"/>
			<point x="422" y="534" type="curve"/>
			<point x="422" y="542"/>
			<point x="418" y="544"/>
			<point x="418" y="548" type="curve"/>
			<point x="418" y="550"/>
			<point x="420" y="552"/>
			<point x="420" y="553" type="curve"/>
			<point x="420" y="558"/>
			<point x="412" y="564"/>
			<point x="407" y="568" type="curve"/>
			<point x="398" y="575"/>
			<point x="389" y="571"/>
			<point x="386" y="573" type="curve"/>
			<point x="375" y="580"/>
			<point x="363" y="587"/>
			<point x="348" y="587" type="curve"/>
			<point x="330" y="587"/>
			<point x="297" y="580"/>
			<point x="293" y="573" type="curve"/>
			<point x="290" y="568"/>
			<point x="296" y="569"/>
			<point x="290" y="562" type="curve"/>
			<point x="280" y="551"/>
			<point x="262" y="529"/>
			<point x="250" y="512" type="curve"/>
			<point x="239" y="497"/>
			<point x="232" y="489"/>
			<point x="232" y="481" type="curve"/>
			<point x="232" y="476"/>
			<point x="231" y="480"/>
			<point x="239" y="471" type="curve"/>
			<point x="246" y="463"/>
			<point x="256" y="455"/>
			<point x="264" y="448" type="curve"/>
			<point x="278" y="436"/>
			<point x="286" y="429"/>
			<point x="300" y="422" type="curve"/>
			<point x="304" y="420"/>
			<point x="333" y="409"/>
			<point x="337" y="408" type="curve"/>
			<point x="352" y="400" type="line"/>
			<point x="354" y="400"/>
			<point x="352" y="396"/>
			<point x="343" y="393" type="curve"/>
			<point x="337" y="391"/>
			<point x="334" y="387"/>
			<point x="334" y="377" type="curve"/>
			<point x="334" y="358"/>
			<point x="352" y="367"/>
			<point x="356" y="361" type="curve"/>
			<point x="359" y="357"/>
			<point x="359" y="353"/>
			<point x="359" y="345" type="curve"/>
			<point x="359" y="341"/>
			<point x="361" y="331"/>
			<point x="358" y="330" type="curve"/>
			<point x="352" y="328"/>
			<point x="353" y="357"/>
			<point x="351" y="358" type="curve"/>
			<point x="348" y="359"/>
			<point x="343" y="355"/>
			<point x="337" y="360" type="curve"/>
			<point x="332" y="364"/>
			<point x="330" y="370"/>
			<point x="325" y="375" type="curve"/>
			<point x="322" y="378"/>
			<point x="302" y="391"/>
			<point x="295" y="393" type="curve"/>
			<point x="291" y="394"/>
			<point x="278" y="396"/>
			<point x="274" y="394" type="curve"/>
			<point x="269" y="392"/>
			<point x="268" y="366"/>
			<point x="270" y="364" type="curve"/>
			<point x="277" y="357"/>
			<point x="290" y="347"/>
			<point x="293" y="348" type="curve"/>
			<point x="295" y="349"/>
			<point x="285" y="368"/>
			<point x="285" y="378" type="curve"/>
			<point x="285" y="380"/>
			<point x="286" y="383"/>
			<point x="288" y="383" type="curve"/>
			<point x="291" y="383"/>
			<point x="293" y="361"/>
			<point x="295" y="357" type="curve"/>
			<point x="302" y="344"/>
			<point x="311" y="334"/>
			<point x="321" y="325" type="curve"/>
			<point x="328" y="319"/>
			<point x="348" y="293"/>
			<point x="350" y="292" type="curve"/>
			<point x="354" y="290"/>
			<point x="353" y="307"/>
			<point x="357" y="313" type="curve"/>
			<point x="360" y="317"/>
			<point x="368" y="321"/>
			<point x="368" y="321" type="curve"/>
			<point x="369" y="319"/>
			<point x="362" y="309"/>
			<point x="362" y="309" type="curve"/>
			<point x="359" y="305"/>
			<point x="358" y="300"/>
			<point x="359" y="295" type="curve"/>
			<point x="363" y="277"/>
			<point x="369" y="271"/>
			<point x="371" y="257" type="curve"/>
			<point x="372" y="248"/>
			<point x="367" y="245"/>
			<point x="366" y="250" type="curve"/>
			<point x="362" y="268"/>
			<point x="350" y="288"/>
			<point x="344" y="293" type="curve"/>
			<point x="335" y="301"/>
			<point x="292" y="340"/>
			<point x="281" y="348" type="curve"/>
			<point x="255" y="366" type="line" smooth="yes"/>
			<point x="249" y="370"/>
			<point x="238" y="376"/>
			<point x="229" y="376" type="curve"/>
			<point x="225" y="376"/>
			<point x="217" y="376"/>
			<point x="212" y="365" type="curve"/>
			<point x="208" y="356"/>
			<point x="207" y="349"/>
			<point x="207" y="341" type="curve"/>
			<point x="207" y="327"/>
			<point x="222" y="306"/>
			<point x="222" y="305" type="curve"/>
			<point x="222" y="285"/>
			<point x="253" y="254"/>
			<point x="262" y="245" type="curve"/>
			<point x="278" y="229"/>
			<point x="296" y="198"/>
			<point x="298" y="192" type="curve"/>
			<point x="304" y="173"/>
			<point x="307" y="159"/>
			<point x="298" y="144" type="curve"/>
			<point x="295" y="139"/>
			<point x="291" y="137"/>
			<point x="286" y="129" type="curve"/>
			<point x="284" y="126"/>
			<point x="276" y="125"/>
		</contour>
		<contour>
			<point x="187" y="519" type="curve"/>
			<point x="187" y="519" type="line"/>
			<point x="170" y="536"/>
			<point x="152" y="553"/>
			<point x="129" y="564" type="curve"/>
			<point x="127" y="565"/>
			<point x="133" y="572"/>
			<point x="136" y="570" type="curve"/>
			<point x="156" y="557"/>
			<point x="176" y="543"/>
			<point x="194" y="525" type="curve"/>
			<point x="196" y="523"/>
			<point x="189" y="517"/>
		</contour>
		<contour>
			<point x="295" y="397" type="curve"/>
			<point x="295" y="397" type="line"/>
			<point x="300" y="397"/>
			<point x="306" y="411"/>
			<point x="302" y="415" type="curve"/>
			<point x="298" y="419"/>
			<point x="296" y="420"/>
			<point x="294" y="420" type="curve"/>
			<point x="293" y="420"/>
			<point x="292" y="419"/>
			<point x="292" y="415" type="curve"/>
			<point x="292" y="414" type="line" smooth="yes"/>
			<point x="292" y="412"/>
			<point x="289" y="402"/>
			<point x="289" y="401" type="curve"/>
			<point x="289" y="397"/>
			<point x="293" y="397"/>
		</contour>
		<contour>
			<point x="317" y="389" type="curve"/>
			<point x="317" y="389" type="line"/>
			<point x="320" y="391"/>
			<point x="321" y="403"/>
			<point x="321" y="406" type="curve"/>
			<point x="321" y="411"/>
			<point x="319" y="407"/>
			<point x="314" y="411" type="curve"/>
			<point x="308" y="416"/>
			<point x="307" y="415"/>
			<point x="307" y="408" type="curve"/>
			<point x="307" y="402"/>
			<point x="302" y="398"/>
			<point x="307" y="393" type="curve"/>
			<point x="308" y="392"/>
			<point x="315" y="388"/>
		</contour>
		<contour>
			<point x="426" y="270" type="curve"/>
			<point x="426" y="270" type="line"/>
			<point x="426" y="276" type="line" smooth="yes"/>
			<point x="426" y="275"/>
			<point x="424" y="284"/>
			<point x="430" y="296" type="curve"/>
			<point x="433" y="302"/>
			<point x="429" y="292"/>
			<point x="429" y="283" type="curve"/>
			<point x="429" y="274"/>
			<point x="427" y="270"/>
		</contour>
		<contour>
			<point x="536" y="195" type="curve"/>
			<point x="536" y="195" type="line"/>
			<point x="539" y="204"/>
			<point x="539" y="209"/>
			<point x="536" y="216" type="curve"/>
			<point x="544" y="216"/>
			<point x="549" y="218"/>
			<point x="556" y="221" type="curve"/>
			<point x="554" y="214"/>
			<point x="555" y="209"/>
			<point x="558" y="200" type="curve"/>
			<point x="550" y="199"/>
			<point x="543" y="198"/>
		</contour>
		<contour>
			<point x="492" y="240" type="curve"/>
			<point x="492" y="240" type="line"/>
			<point x="491" y="239"/>
			<point x="493" y="244"/>
			<point x="495" y="249" type="curve"/>
			<point x="499" y="258"/>
			<point x="513" y="280"/>
			<point x="511" y="271" type="curve"/>
			<point x="510" y="266"/>
			<point x="494" y="242"/>
		</contour>
		<contour>
			<point x="281" y="483" type="curve"/>
			<point x="281" y="483" type="line"/>
			<point x="283" y="485"/>
			<point x="283" y="496"/>
			<point x="281" y="494" type="curve"/>
			<point x="278" y="491"/>
			<point x="274" y="488"/>
			<point x="272" y="485" type="curve"/>
			<point x="271" y="483"/>
			<point x="280" y="482"/>
		</contour>
		<contour>
			<point x="196" y="545" type="curve"/>
			<point x="196" y="545" type="line"/>
			<point x="196" y="550" type="line"/>
			<point x="208" y="551"/>
			<point x="212" y="551"/>
			<point x="221" y="568" type="curve"/>
			<point x="225" y="576"/>
			<point x="216" y="592"/>
			<point x="209" y="597" type="curve"/>
			<point x="206" y="599"/>
			<point x="195" y="608"/>
			<point x="185" y="608" type="curve"/>
			<point x="175" y="608"/>
			<point x="168" y="604"/>
			<point x="163" y="598" type="curve"/>
			<point x="156" y="589"/>
			<point x="156" y="584"/>
			<point x="156" y="572" type="curve"/>
			<point x="150" y="572" type="line"/>
			<point x="149" y="589"/>
			<point x="149" y="596"/>
			<point x="159" y="603" type="curve"/>
			<point x="167" y="609"/>
			<point x="176" y="614"/>
			<point x="186" y="614" type="curve"/>
			<point x="201" y="614"/>
			<point x="211" y="610"/>
			<point x="220" y="600" type="curve"/>
			<point x="233" y="586"/>
			<point x="231" y="564"/>
			<point x="224" y="557" type="curve"/>
			<point x="216" y="549"/>
			<point x="212" y="541"/>
		</contour>
		<contour>
			<point x="477" y="259" type="curve"/>
			<point x="477" y="259" type="line"/>
			<point x="475" y="261"/>
			<point x="476" y="265"/>
			<point x="480" y="269" type="curve"/>
			<point x="483" y="272"/>
			<point x="489" y="279"/>
			<point x="492" y="288" type="curve"/>
			<point x="495" y="296"/>
			<point x="496" y="306"/>
			<point x="493" y="313" type="curve"/>
			<point x="490" y="319"/>
			<point x="487" y="334"/>
			<point x="489" y="334" type="curve"/>
			<point x="490" y="334"/>
			<point x="493" y="318"/>
			<point x="495" y="317" type="curve"/>
			<point x="500" y="314"/>
			<point x="499" y="310"/>
			<point x="499" y="306" type="curve"/>
			<point x="499" y="301"/>
			<point x="499" y="293"/>
			<point x="497" y="286" type="curve"/>
			<point x="495" y="279"/>
			<point x="491" y="274"/>
			<point x="487" y="270" type="curve"/>
			<point x="486" y="269"/>
			<point x="480" y="256"/>
		</contour>
		<contour>
			<point x="243" y="547" type="curve"/>
			<point x="243" y="547" type="line"/>
			<point x="231" y="544"/>
			<point x="267" y="562"/>
			<point x="262" y="557" type="curve"/>
			<point x="258" y="553"/>
			<point x="250" y="549"/>
		</contour>
		<contour>
			<point x="321" y="471" type="curve"/>
			<point x="321" y="471" type="line"/>
			<point x="321" y="466"/>
			<point x="315" y="481"/>
			<point x="316" y="487" type="curve"/>
			<point x="317" y="491"/>
			<point x="327" y="503"/>
			<point x="326" y="498" type="curve"/>
			<point x="325" y="494"/>
			<point x="322" y="490"/>
			<point x="321" y="486" type="curve"/>
			<point x="320" y="481"/>
			<point x="321" y="476"/>
		</contour>
		<contour>
			<point x="364" y="441" type="curve"/>
			<point x="364" y="441" type="line"/>
			<point x="361" y="437"/>
			<point x="352" y="451"/>
			<point x="328" y="457" type="curve"/>
			<point x="324" y="458"/>
			<point x="259" y="479"/>
			<point x="259" y="483" type="curve"/>
			<point x="259" y="484"/>
			<point x="260" y="485"/>
			<point x="260" y="485" type="curve"/>
			<point x="267" y="489"/>
			<point x="275" y="495"/>
			<point x="281" y="503" type="curve"/>
			<point x="287" y="511"/>
			<point x="315" y="550"/>
			<point x="312" y="553" type="curve"/>
			<point x="311" y="554"/>
			<point x="313" y="556"/>
			<point x="314" y="555" type="curve"/>
			<point x="319" y="550"/>
			<point x="360" y="568"/>
			<point x="354" y="562" type="curve"/>
			<point x="348" y="556"/>
			<point x="340" y="558"/>
			<point x="325" y="543" type="curve"/>
			<point x="324" y="542"/>
			<point x="301" y="513"/>
			<point x="300" y="511" type="curve"/>
			<point x="294" y="498"/>
			<point x="297" y="490"/>
			<point x="295" y="490" type="curve"/>
			<point x="293" y="490"/>
			<point x="292" y="496"/>
			<point x="292" y="497" type="curve"/>
			<point x="292" y="516"/>
			<point x="304" y="520"/>
			<point x="311" y="533" type="curve"/>
			<point x="311" y="533"/>
			<point x="321" y="547"/>
			<point x="320" y="548" type="curve"/>
			<point x="318" y="550"/>
			<point x="304" y="535"/>
			<point x="296" y="519" type="curve"/>
			<point x="291" y="509"/>
			<point x="286" y="500"/>
			<point x="286" y="490" type="curve"/>
			<point x="286" y="483"/>
			<point x="289" y="479"/>
			<point x="291" y="477" type="curve"/>
			<point x="292" y="476"/>
			<point x="302" y="468"/>
			<point x="302" y="472" type="curve"/>
			<point x="302" y="476"/>
			<point x="300" y="480"/>
			<point x="300" y="483" type="curve"/>
			<point x="300" y="485"/>
			<point x="301" y="489"/>
			<point x="302" y="492" type="curve"/>
			<point x="304" y="499"/>
			<point x="318" y="510"/>
			<point x="318" y="507" type="curve"/>
			<point x="318" y="505"/>
			<point x="304" y="490"/>
			<point x="304" y="484" type="curve"/>
			<point x="304" y="481"/>
			<point x="306" y="480"/>
			<point x="306" y="477" type="curve"/>
			<point x="306" y="472"/>
			<point x="311" y="467"/>
			<point x="315" y="466" type="curve"/>
			<point x="318" y="465"/>
			<point x="330" y="460"/>
			<point x="333" y="463" type="curve"/>
			<point x="334" y="464"/>
			<point x="336" y="472"/>
			<point x="337" y="472" type="curve"/>
			<point x="339" y="472"/>
			<point x="339" y="467"/>
			<point x="339" y="465" type="curve"/>
			<point x="339" y="463"/>
			<point x="338" y="459"/>
			<point x="339" y="459" type="curve"/>
			<point x="356" y="459"/>
			<point x="366" y="444"/>
		</contour>
		<contour>
			<point x="442" y="341" type="curve"/>
			<point x="442" y="341" type="line"/>
			<point x="439" y="341"/>
			<point x="439" y="343"/>
			<point x="439" y="344" type="curve"/>
			<point x="439" y="369"/>
			<point x="442" y="366"/>
			<point x="437" y="394" type="curve"/>
			<point x="435" y="405"/>
			<point x="429" y="421"/>
			<point x="427" y="429" type="curve"/>
			<point x="424" y="441"/>
			<point x="443" y="405"/>
			<point x="443" y="368" type="curve"/>
			<point x="443" y="354"/>
			<point x="444" y="341"/>
		</contour>
		<contour>
			<point x="514" y="310" type="curve"/>
			<point x="514" y="310" type="line"/>
			<point x="511" y="327" type="line" smooth="yes"/>
			<point x="510" y="334"/>
			<point x="501" y="339"/>
			<point x="511" y="335" type="curve"/>
			<point x="519" y="332"/>
			<point x="516" y="319"/>
			<point x="516" y="315" type="curve"/>
			<point x="516" y="312"/>
			<point x="515" y="310"/>
		</contour>
		<contour>
			<point x="486" y="220" type="curve"/>
			<point x="486" y="220" type="line"/>
			<point x="488" y="219"/>
			<point x="478" y="236"/>
			<point x="477" y="241" type="curve"/>
			<point x="476" y="248"/>
			<point x="481" y="255"/>
			<point x="486" y="258" type="curve"/>
			<point x="490" y="261"/>
			<point x="505" y="287"/>
			<point x="505" y="297" type="curve"/>
			<point x="505" y="310"/>
			<point x="495" y="323"/>
			<point x="491" y="345" type="curve"/>
			<point x="490" y="350"/>
			<point x="488" y="360"/>
			<point x="488" y="365" type="curve"/>
			<point x="488" y="384"/>
			<point x="497" y="398"/>
			<point x="497" y="416" type="curve"/>
			<point x="497" y="432"/>
			<point x="491" y="448"/>
			<point x="467" y="461" type="curve"/>
			<point x="452" y="469"/>
			<point x="437" y="476"/>
			<point x="437" y="494" type="curve"/>
			<point x="437" y="527" type="line" smooth="yes"/>
			<point x="437" y="538"/>
			<point x="435" y="546"/>
			<point x="431" y="555" type="curve"/>
			<point x="425" y="569"/>
			<point x="410" y="584"/>
			<point x="392" y="584" type="curve"/>
			<point x="386" y="584" type="line" smooth="yes"/>
			<point x="385" y="584"/>
			<point x="384" y="582"/>
			<point x="385" y="580" type="curve"/>
			<point x="385" y="580"/>
			<point x="387" y="577"/>
			<point x="388" y="577" type="curve"/>
			<point x="398" y="577"/>
			<point x="419" y="576"/>
			<point x="427" y="553" type="curve"/>
			<point x="429" y="547"/>
			<point x="429" y="542"/>
			<point x="429" y="536" type="curve"/>
			<point x="429" y="524"/>
			<point x="428" y="510"/>
			<point x="427" y="503" type="curve"/>
			<point x="426" y="497"/>
			<point x="428" y="485"/>
			<point x="430" y="481" type="curve"/>
			<point x="433" y="475"/>
			<point x="461" y="458"/>
			<point x="466" y="451" type="curve"/>
			<point x="472" y="442"/>
			<point x="484" y="438"/>
			<point x="484" y="411" type="curve"/>
			<point x="484" y="348" type="line" smooth="yes"/>
			<point x="484" y="340"/>
			<point x="482" y="331"/>
			<point x="482" y="325" type="curve"/>
			<point x="482" y="317"/>
			<point x="483" y="304"/>
			<point x="481" y="293" type="curve"/>
			<point x="480" y="288"/>
			<point x="469" y="270"/>
			<point x="469" y="264" type="curve"/>
			<point x="469" y="262"/>
			<point x="473" y="250"/>
			<point x="473" y="248" type="curve"/>
			<point x="473" y="242"/>
			<point x="478" y="224"/>
		</contour>
		<contour>
			<point x="522" y="237" type="curve"/>
			<point x="522" y="237" type="line"/>
			<point x="518" y="237"/>
			<point x="523" y="248"/>
			<point x="527" y="248" type="curve"/>
			<point x="545" y="248"/>
			<point x="594" y="242"/>
			<point x="579" y="252" type="curve"/>
			<point x="565" y="262"/>
			<point x="553" y="274"/>
			<point x="539" y="283" type="curve"/>
			<point x="536" y="285"/>
			<point x="538" y="299"/>
			<point x="541" y="299" type="curve"/>
			<point x="563" y="299"/>
			<point x="623" y="285"/>
			<point x="605" y="297" type="curve"/>
			<point x="587" y="309"/>
			<point x="566" y="319"/>
			<point x="549" y="331" type="curve"/>
			<point x="546" y="333"/>
			<point x="548" y="343"/>
			<point x="550" y="342" type="curve"/>
			<point x="578" y="328"/>
			<point x="624" y="296"/>
			<point x="624" y="296" type="curve"/>
			<point x="624" y="291" type="line" smooth="yes"/>
			<point x="624" y="276"/>
			<point x="528" y="300"/>
			<point x="549" y="285" type="curve"/>
			<point x="569" y="271"/>
			<point x="591" y="256"/>
			<point x="609" y="245" type="curve"/>
			<point x="610" y="244"/>
			<point x="609" y="240"/>
			<point x="608" y="240" type="curve"/>
			<point x="579" y="240"/>
			<point x="549" y="237"/>
		</contour>
		<contour>
			<point x="321" y="521" type="curve"/>
			<point x="321" y="521" type="line"/>
			<point x="317" y="516"/>
			<point x="319" y="530"/>
			<point x="326" y="535" type="curve"/>
			<point x="330" y="538"/>
			<point x="344" y="550"/>
			<point x="341" y="546" type="curve"/>
			<point x="337" y="540"/>
			<point x="332" y="538"/>
			<point x="328" y="533" type="curve"/>
			<point x="324" y="528"/>
			<point x="326" y="527"/>
		</contour>
		<contour>
			<point x="252" y="608" type="curve"/>
			<point x="252" y="608" type="line"/>
			<point x="245" y="612"/>
			<point x="239" y="614"/>
			<point x="231" y="615" type="curve"/>
			<point x="238" y="621"/>
			<point x="240" y="625"/>
			<point x="241" y="633" type="curve"/>
			<point x="249" y="629"/>
			<point x="254" y="628"/>
			<point x="261" y="628" type="curve"/>
			<point x="257" y="623"/>
			<point x="254" y="617"/>
		</contour>
		<contour>
			<point x="495" y="216" type="curve"/>
			<point x="495" y="216" type="line"/>
			<point x="500" y="214"/>
			<point x="495" y="234"/>
			<point x="503" y="245" type="curve"/>
			<point x="506" y="249"/>
			<point x="501" y="234"/>
			<point x="503" y="233" type="curve"/>
			<point x="506" y="231"/>
			<point x="515" y="256"/>
			<point x="514" y="257" type="curve"/>
			<point x="511" y="257"/>
			<point x="503" y="246"/>
			<point x="508" y="254" type="curve"/>
			<point x="522" y="276"/>
			<point x="525" y="299"/>
			<point x="525" y="318" type="curve"/>
			<point x="525" y="319"/>
			<point x="521" y="335"/>
			<point x="519" y="339" type="curve"/>
			<point x="517" y="343"/>
			<point x="508" y="369"/>
			<point x="509" y="375" type="curve"/>
			<point x="512" y="392"/>
			<point x="514" y="403"/>
			<point x="517" y="414" type="curve"/>
			<point x="518" y="418"/>
			<point x="517" y="430"/>
			<point x="516" y="434" type="curve"/>
			<point x="514" y="443"/>
			<point x="509" y="449"/>
			<point x="502" y="456" type="curve"/>
			<point x="497" y="461"/>
			<point x="482" y="467"/>
			<point x="473" y="475" type="curve"/>
			<point x="468" y="479"/>
			<point x="459" y="491"/>
			<point x="457" y="497" type="curve"/>
			<point x="454" y="506"/>
			<point x="464" y="539"/>
			<point x="449" y="554" type="curve"/>
			<point x="447" y="556"/>
			<point x="441" y="562"/>
			<point x="439" y="562" type="curve"/>
			<point x="436" y="562"/>
			<point x="437" y="557"/>
			<point x="438" y="555" type="curve"/>
			<point x="440" y="551"/>
			<point x="441" y="546"/>
			<point x="443" y="541" type="curve"/>
			<point x="444" y="538"/>
			<point x="444" y="535"/>
			<point x="444" y="532" type="curve"/>
			<point x="444" y="525"/>
			<point x="447" y="519"/>
			<point x="444" y="511" type="curve"/>
			<point x="443" y="508"/>
			<point x="442" y="499"/>
			<point x="442" y="497" type="curve"/>
			<point x="442" y="478"/>
			<point x="461" y="469"/>
			<point x="475" y="462" type="curve"/>
			<point x="481" y="459"/>
			<point x="487" y="454"/>
			<point x="492" y="450" type="curve"/>
			<point x="495" y="448"/>
			<point x="498" y="443"/>
			<point x="501" y="435" type="curve"/>
			<point x="504" y="427"/>
			<point x="503" y="413"/>
			<point x="504" y="413" type="curve"/>
			<point x="505" y="413"/>
			<point x="506" y="416"/>
			<point x="506" y="417" type="curve"/>
			<point x="506" y="422"/>
			<point x="508" y="434"/>
			<point x="506" y="438" type="curve"/>
			<point x="505" y="440"/>
			<point x="494" y="456"/>
			<point x="495" y="457" type="curve"/>
			<point x="496" y="458"/>
			<point x="502" y="450"/>
			<point x="504" y="448" type="curve"/>
			<point x="510" y="442"/>
			<point x="510" y="433"/>
			<point x="510" y="426" type="curve"/>
			<point x="510" y="416"/>
			<point x="504" y="407"/>
			<point x="504" y="394" type="curve"/>
			<point x="504" y="393"/>
			<point x="503" y="387"/>
			<point x="502" y="384" type="curve"/>
			<point x="500" y="378"/>
			<point x="501" y="371"/>
			<point x="502" y="364" type="curve"/>
			<point x="503" y="357"/>
			<point x="509" y="349"/>
			<point x="506" y="343" type="curve"/>
			<point x="504" y="339"/>
			<point x="505" y="346"/>
			<point x="501" y="353" type="curve"/>
			<point x="500" y="355"/>
			<point x="499" y="361"/>
			<point x="497" y="361" type="curve"/>
			<point x="496" y="361"/>
			<point x="495" y="356"/>
			<point x="495" y="354" type="curve"/>
			<point x="495" y="336"/>
			<point x="508" y="323"/>
			<point x="511" y="310" type="curve"/>
			<point x="513" y="300"/>
			<point x="511" y="288"/>
			<point x="507" y="278" type="curve"/>
			<point x="499" y="258"/>
			<point x="482" y="244"/>
			<point x="483" y="239" type="curve"/>
			<point x="484" y="234"/>
			<point x="485" y="230"/>
			<point x="488" y="226" type="curve"/>
			<point x="491" y="222"/>
			<point x="493" y="217"/>
		</contour>
		<contour>
			<point x="339" y="519" type="curve"/>
			<point x="339" y="519" type="line"/>
			<point x="337" y="515"/>
			<point x="336" y="519"/>
			<point x="339" y="525" type="curve"/>
			<point x="342" y="530"/>
			<point x="357" y="538"/>
			<point x="353" y="534" type="curve"/>
			<point x="349" y="530"/>
			<point x="345" y="530"/>
			<point x="342" y="525" type="curve"/>
			<point x="339" y="520"/>
			<point x="341" y="524"/>
		</contour>
		<contour>
			<point x="360" y="491" type="curve"/>
			<point x="360" y="491" type="line"/>
			<point x="363" y="497"/>
			<point x="366" y="495"/>
			<point x="369" y="501" type="curve"/>
			<point x="372" y="507"/>
			<point x="369" y="518"/>
			<point x="370" y="521" type="curve"/>
			<point x="372" y="526"/>
			<point x="378" y="506"/>
			<point x="372" y="498" type="curve"/>
			<point x="369" y="494"/>
			<point x="359" y="489"/>
		</contour>
		<contour>
			<point x="355" y="507" type="curve"/>
			<point x="355" y="507" type="line"/>
			<point x="356" y="511"/>
			<point x="358" y="514"/>
			<point x="359" y="519" type="curve"/>
			<point x="360" y="523"/>
			<point x="358" y="529"/>
			<point x="361" y="533" type="curve"/>
			<point x="363" y="536"/>
			<point x="366" y="522"/>
			<point x="363" y="516" type="curve"/>
			<point x="362" y="514"/>
			<point x="354" y="503"/>
		</contour>
		<contour>
			<point x="400" y="486" type="curve"/>
			<point x="400" y="486" type="line"/>
			<point x="398" y="483"/>
			<point x="385" y="502"/>
			<point x="385" y="499" type="curve"/>
			<point x="385" y="498"/>
			<point x="385" y="492"/>
			<point x="382" y="495" type="curve"/>
			<point x="381" y="496"/>
			<point x="383" y="502"/>
			<point x="383" y="504" type="curve"/>
			<point x="383" y="520" type="line" smooth="yes"/>
			<point x="383" y="528"/>
			<point x="366" y="546"/>
			<point x="375" y="538" type="curve"/>
			<point x="382" y="532"/>
			<point x="387" y="516"/>
			<point x="387" y="508" type="curve"/>
			<point x="387" y="498"/>
			<point x="402" y="489"/>
		</contour>
		<contour>
			<point x="397" y="514" type="curve"/>
			<point x="397" y="514" type="line"/>
			<point x="396" y="510"/>
			<point x="393" y="528"/>
			<point x="393" y="532" type="curve"/>
			<point x="393" y="537"/>
			<point x="388" y="540"/>
			<point x="384" y="544" type="curve"/>
			<point x="383" y="545"/>
			<point x="386" y="545"/>
			<point x="389" y="543" type="curve"/>
			<point x="394" y="540"/>
			<point x="399" y="532"/>
			<point x="397" y="525" type="curve"/>
			<point x="396" y="522"/>
			<point x="397" y="514"/>
		</contour>
		<contour>
			<point x="532" y="314" type="curve"/>
			<point x="532" y="314" type="line"/>
			<point x="535" y="320"/>
			<point x="522" y="352"/>
			<point x="522" y="381" type="curve"/>
			<point x="522" y="393"/>
			<point x="526" y="409"/>
			<point x="527" y="419" type="curve"/>
			<point x="528" y="430"/>
			<point x="530" y="438"/>
			<point x="525" y="447" type="curve"/>
			<point x="518" y="460"/>
			<point x="491" y="486"/>
			<point x="482" y="496" type="curve"/>
			<point x="474" y="505"/>
			<point x="468" y="528"/>
			<point x="465" y="540" type="curve"/>
			<point x="463" y="547"/>
			<point x="460" y="546"/>
			<point x="461" y="543" type="curve"/>
			<point x="465" y="531"/>
			<point x="464" y="506"/>
			<point x="466" y="500" type="curve"/>
			<point x="469" y="490"/>
			<point x="485" y="477"/>
			<point x="506" y="459" type="curve"/>
			<point x="513" y="453"/>
			<point x="518" y="446"/>
			<point x="523" y="436" type="curve"/>
			<point x="527" y="428"/>
			<point x="516" y="385"/>
			<point x="515" y="374" type="curve"/>
			<point x="513" y="357"/>
			<point x="523" y="349"/>
			<point x="526" y="334" type="curve"/>
			<point x="527" y="328"/>
			<point x="529" y="308"/>
		</contour>
		<contour>
			<point x="335" y="568" type="curve"/>
			<point x="335" y="568" type="line"/>
			<point x="330" y="567"/>
			<point x="348" y="578"/>
			<point x="356" y="578" type="curve"/>
			<point x="361" y="578"/>
			<point x="379" y="572"/>
			<point x="374" y="572" type="curve"/>
			<point x="367" y="572"/>
			<point x="362" y="573"/>
			<point x="356" y="572" type="curve"/>
			<point x="349" y="571"/>
			<point x="342" y="569"/>
		</contour>
		<contour>
			<point x="325" y="623" type="curve"/>
			<point x="325" y="623" type="line"/>
			<point x="321" y="629"/>
			<point x="317" y="632"/>
			<point x="308" y="635" type="curve"/>
			<point x="316" y="638"/>
			<point x="320" y="643"/>
			<point x="325" y="649" type="curve"/>
			<point x="330" y="642"/>
			<point x="335" y="638"/>
			<point x="341" y="635" type="curve"/>
			<point x="334" y="632"/>
			<point x="330" y="629"/>
		</contour>
		<contour>
			<point x="449" y="491" type="curve"/>
			<point x="449" y="491" type="line"/>
			<point x="448" y="491"/>
			<point x="448" y="497"/>
			<point x="448" y="503" type="curve"/>
			<point x="448" y="515"/>
			<point x="450" y="531"/>
			<point x="452" y="528" type="curve"/>
			<point x="453" y="526"/>
			<point x="455" y="522"/>
			<point x="453" y="518" type="curve"/>
			<point x="451" y="513"/>
			<point x="451" y="509"/>
			<point x="451" y="504" type="curve"/>
			<point x="451" y="498" type="line" smooth="yes"/>
			<point x="451" y="496"/>
			<point x="450" y="491"/>
		</contour>
		<contour>
			<point x="553" y="354" type="curve"/>
			<point x="553" y="354" type="line"/>
			<point x="550" y="354"/>
			<point x="550" y="392"/>
			<point x="550" y="402" type="curve"/>
			<point x="550" y="404"/>
			<point x="560" y="403"/>
			<point x="560" y="402" type="curve"/>
			<point x="560" y="391"/>
			<point x="560" y="366"/>
			<point x="562" y="364" type="curve"/>
			<point x="562" y="364"/>
			<point x="586" y="363"/>
			<point x="586" y="366" type="curve"/>
			<point x="586" y="369"/>
			<point x="583" y="387"/>
			<point x="582" y="399" type="curve"/>
			<point x="582" y="402"/>
			<point x="589" y="401"/>
			<point x="589" y="400" type="curve"/>
			<point x="591" y="386"/>
			<point x="592" y="366"/>
			<point x="596" y="365" type="curve"/>
			<point x="601" y="364"/>
			<point x="613" y="366"/>
			<point x="613" y="367" type="curve"/>
			<point x="613" y="378"/>
			<point x="608" y="396"/>
			<point x="608" y="411" type="curve"/>
			<point x="608" y="414"/>
			<point x="619" y="414"/>
			<point x="619" y="411" type="curve"/>
			<point x="619" y="396"/>
			<point x="626" y="358"/>
			<point x="622" y="357" type="curve"/>
			<point x="618" y="356"/>
			<point x="558" y="354"/>
		</contour>
		<contour>
			<point x="544" y="421" type="curve"/>
			<point x="544" y="421" type="line"/>
			<point x="541" y="420"/>
			<point x="539" y="430"/>
			<point x="541" y="431" type="curve"/>
			<point x="565" y="439"/>
			<point x="588" y="441"/>
			<point x="612" y="449" type="curve"/>
			<point x="615" y="450"/>
			<point x="619" y="439"/>
			<point x="615" y="438" type="curve"/>
			<point x="593" y="433"/>
			<point x="568" y="429"/>
		</contour>
		<contour>
			<point x="418" y="593" type="curve"/>
			<point x="418" y="593" type="line"/>
			<point x="409" y="593"/>
			<point x="388" y="607"/>
			<point x="388" y="622" type="curve"/>
			<point x="388" y="631"/>
			<point x="405" y="634"/>
			<point x="405" y="634" type="curve"/>
			<point x="405" y="659"/>
			<point x="388" y="693"/>
			<point x="370" y="649" type="curve"/>
			<point x="369" y="646"/>
			<point x="365" y="646"/>
			<point x="366" y="650" type="curve"/>
			<point x="372" y="673"/>
			<point x="391" y="693"/>
			<point x="407" y="664" type="curve"/>
			<point x="414" y="651"/>
			<point x="412" y="636"/>
			<point x="418" y="627" type="curve"/>
			<point x="420" y="624"/>
			<point x="398" y="630"/>
			<point x="396" y="617" type="curve"/>
			<point x="395" y="611"/>
			<point x="405" y="604"/>
			<point x="414" y="602" type="curve"/>
			<point x="421" y="624"/>
			<point x="431" y="640"/>
			<point x="444" y="660" type="curve"/>
			<point x="446" y="663"/>
			<point x="453" y="653"/>
			<point x="451" y="650" type="curve"/>
			<point x="439" y="632"/>
			<point x="426" y="616"/>
		</contour>
		<contour>
			<point x="471" y="573" type="curve"/>
			<point x="471" y="573" type="line"/>
			<point x="471" y="573"/>
			<point x="495" y="588"/>
			<point x="494" y="588" type="curve"/>
			<point x="493" y="588"/>
			<point x="477" y="600"/>
			<point x="475" y="602" type="curve"/>
			<point x="474" y="603"/>
			<point x="471" y="580"/>
		</contour>
		<contour>
			<point x="527" y="472" type="curve"/>
			<point x="527" y="472" type="line"/>
			<point x="524" y="476" type="line"/>
			<point x="524" y="476"/>
			<point x="547" y="510"/>
			<point x="564" y="531" type="curve"/>
			<point x="552" y="527"/>
			<point x="525" y="516"/>
			<point x="503" y="516" type="curve"/>
			<point x="501" y="516"/>
			<point x="500" y="520"/>
			<point x="501" y="521" type="curve"/>
			<point x="513" y="543"/>
			<point x="524" y="566"/>
			<point x="544" y="586" type="curve"/>
			<point x="547" y="589"/>
			<point x="550" y="577"/>
			<point x="548" y="575" type="curve"/>
			<point x="535" y="562"/>
			<point x="524" y="538"/>
			<point x="510" y="526" type="curve"/>
			<point x="517" y="526"/>
			<point x="554" y="535"/>
			<point x="571" y="541" type="curve"/>
			<point x="574" y="542"/>
			<point x="578" y="540"/>
			<point x="575" y="537" type="curve"/>
			<point x="572" y="534"/>
			<point x="553" y="500"/>
			<point x="538" y="481" type="curve"/>
			<point x="552" y="481"/>
			<point x="584" y="487"/>
			<point x="604" y="487" type="curve"/>
			<point x="607" y="487"/>
			<point x="609" y="476"/>
			<point x="606" y="476" type="curve"/>
			<point x="575" y="476"/>
			<point x="528" y="471"/>
		</contour>
		<contour>
			<point x="466" y="560" type="curve"/>
			<point x="466" y="560" type="line"/>
			<point x="462" y="559"/>
			<point x="458" y="566"/>
			<point x="458" y="567" type="curve"/>
			<point x="461" y="590"/>
			<point x="467" y="617"/>
			<point x="474" y="643" type="curve"/>
			<point x="475" y="645"/>
			<point x="483" y="641"/>
			<point x="483" y="638" type="curve"/>
			<point x="483" y="630"/>
			<point x="477" y="611"/>
			<point x="477" y="611" type="curve"/>
			<point x="500" y="591" type="line" smooth="yes"/>
			<point x="504" y="588"/>
			<point x="523" y="606"/>
			<point x="525" y="604" type="curve"/>
			<point x="527" y="602"/>
			<point x="532" y="600"/>
			<point x="530" y="598" type="curve"/>
			<point x="529" y="597"/>
			<point x="487" y="565"/>
		</contour>
	</outline>
</glyph>
